<?xml version="1.0" encoding="UTF-8" standalone="no"?>
<!DOCTYPE svg PUBLIC "-//W3C//DTD SVG 1.1//EN"
 "http://www.w3.org/Graphics/SVG/1.1/DTD/svg11.dtd">
<!-- Generated by graphviz version 2.26.3 (20100126.1600)
 -->
<!-- Title: controllers_diagram Pages: 1 -->
<svg width="1165pt" height="1118pt"
 viewBox="0.00 0.00 1165.00 1118.00" xmlns="http://www.w3.org/2000/svg" xmlns:xlink="http://www.w3.org/1999/xlink">
<g id="graph1" class="graph" transform="scale(1 1) rotate(0) translate(4 1114)">
<title>controllers_diagram</title>
<polygon fill="white" stroke="white" points="-4,5 -4,-1114 1162,-1114 1162,5 -4,5"/>
<!-- _diagram_info -->
<g id="node1" class="node"><title>_diagram_info</title>
<text text-anchor="start" x="522" y="-287.3" font-family="Times Roman,serif" font-size="13.00">Controllers diagram</text>
<text text-anchor="start" x="522" y="-270.3" font-family="Times Roman,serif" font-size="13.00">Date: Jul 18 2012 &#45; 20:45</text>
<text text-anchor="start" x="522" y="-253.3" font-family="Times Roman,serif" font-size="13.00">Migration version: 20111127231846</text>
<text text-anchor="start" x="522" y="-236.3" font-family="Times Roman,serif" font-size="13.00">Generated by RailRoady 1.0.7</text>
<text text-anchor="start" x="522" y="-219.3" font-family="Times Roman,serif" font-size="13.00">http://railroady.prestonlee.com</text>
</g>
<!-- StatusesController -->
<g id="node2" class="node"><title>StatusesController</title>
<polyline fill="none" stroke="black" points="1001,-172.5 1123,-172.5 "/>
<path fill="none" stroke="black" d="M1123,-172.5C1129,-172.5 1135,-178.5 1135,-184.5"/>
<polyline fill="none" stroke="black" points="1135,-184.5 1135,-280.5 "/>
<path fill="none" stroke="black" d="M1135,-280.5C1135,-286.5 1129,-292.5 1123,-292.5"/>
<polyline fill="none" stroke="black" points="1123,-292.5 1001,-292.5 "/>
<path fill="none" stroke="black" d="M1001,-292.5C995,-292.5 989,-286.5 989,-280.5"/>
<polyline fill="none" stroke="black" points="989,-280.5 989,-184.5 "/>
<path fill="none" stroke="black" d="M989,-184.5C989,-178.5 995,-172.5 1001,-172.5"/>
<text text-anchor="middle" x="1062" y="-275.9" font-family="Times Roman,serif" font-size="14.00">StatusesController</text>
<polyline fill="none" stroke="black" points="989,-266.5 1135,-266.5 "/>
<text text-anchor="start" x="997" y="-249.9" font-family="Times Roman,serif" font-size="14.00">create</text>
<text text-anchor="start" x="997" y="-231.9" font-family="Times Roman,serif" font-size="14.00">destroy</text>
<polyline fill="none" stroke="black" points="989,-222.5 1135,-222.5 "/>
<polyline fill="none" stroke="black" points="989,-198.5 1135,-198.5 "/>
<text text-anchor="start" x="997" y="-181.9" font-family="Times Roman,serif" font-size="14.00">_layout</text>
</g>
<!-- ReferencesController -->
<g id="node3" class="node"><title>ReferencesController</title>
<polyline fill="none" stroke="black" points="146,-685.5 283,-685.5 "/>
<path fill="none" stroke="black" d="M283,-685.5C289,-685.5 295,-691.5 295,-697.5"/>
<polyline fill="none" stroke="black" points="295,-697.5 295,-793.5 "/>
<path fill="none" stroke="black" d="M295,-793.5C295,-799.5 289,-805.5 283,-805.5"/>
<polyline fill="none" stroke="black" points="283,-805.5 146,-805.5 "/>
<path fill="none" stroke="black" d="M146,-805.5C140,-805.5 134,-799.5 134,-793.5"/>
<polyline fill="none" stroke="black" points="134,-793.5 134,-697.5 "/>
<path fill="none" stroke="black" d="M134,-697.5C134,-691.5 140,-685.5 146,-685.5"/>
<text text-anchor="middle" x="214.5" y="-788.9" font-family="Times Roman,serif" font-size="14.00">ReferencesController</text>
<polyline fill="none" stroke="black" points="134,-779.5 295,-779.5 "/>
<text text-anchor="start" x="142" y="-762.9" font-family="Times Roman,serif" font-size="14.00">create</text>
<text text-anchor="start" x="142" y="-744.9" font-family="Times Roman,serif" font-size="14.00">new</text>
<polyline fill="none" stroke="black" points="134,-735.5 295,-735.5 "/>
<polyline fill="none" stroke="black" points="134,-711.5 295,-711.5 "/>
<text text-anchor="start" x="142" y="-694.9" font-family="Times Roman,serif" font-size="14.00">_layout</text>
</g>
<!-- ContactsController -->
<g id="node4" class="node"><title>ContactsController</title>
<polyline fill="none" stroke="black" points="925,-894.5 1047,-894.5 "/>
<path fill="none" stroke="black" d="M1047,-894.5C1053,-894.5 1059,-900.5 1059,-906.5"/>
<polyline fill="none" stroke="black" points="1059,-906.5 1059,-1020.5 "/>
<path fill="none" stroke="black" d="M1059,-1020.5C1059,-1026.5 1053,-1032.5 1047,-1032.5"/>
<polyline fill="none" stroke="black" points="1047,-1032.5 925,-1032.5 "/>
<path fill="none" stroke="black" d="M925,-1032.5C919,-1032.5 913,-1026.5 913,-1020.5"/>
<polyline fill="none" stroke="black" points="913,-1020.5 913,-906.5 "/>
<path fill="none" stroke="black" d="M913,-906.5C913,-900.5 919,-894.5 925,-894.5"/>
<text text-anchor="middle" x="986" y="-1015.9" font-family="Times Roman,serif" font-size="14.00">ContactsController</text>
<polyline fill="none" stroke="black" points="913,-1006.5 1059,-1006.5 "/>
<text text-anchor="start" x="921" y="-989.9" font-family="Times Roman,serif" font-size="14.00">contacts</text>
<text text-anchor="start" x="921" y="-971.9" font-family="Times Roman,serif" font-size="14.00">contacts_user</text>
<text text-anchor="start" x="921" y="-953.9" font-family="Times Roman,serif" font-size="14.00">request_contact</text>
<polyline fill="none" stroke="black" points="913,-944.5 1059,-944.5 "/>
<polyline fill="none" stroke="black" points="913,-920.5 1059,-920.5 "/>
<text text-anchor="start" x="921" y="-903.9" font-family="Times Roman,serif" font-size="14.00">_layout</text>
</g>
<!-- ExperiencesController -->
<g id="node5" class="node"><title>ExperiencesController</title>
<polyline fill="none" stroke="black" points="526,-58.5 670,-58.5 "/>
<path fill="none" stroke="black" d="M670,-58.5C676,-58.5 682,-64.5 682,-70.5"/>
<polyline fill="none" stroke="black" points="682,-70.5 682,-166.5 "/>
<path fill="none" stroke="black" d="M682,-166.5C682,-172.5 676,-178.5 670,-178.5"/>
<polyline fill="none" stroke="black" points="670,-178.5 526,-178.5 "/>
<path fill="none" stroke="black" d="M526,-178.5C520,-178.5 514,-172.5 514,-166.5"/>
<polyline fill="none" stroke="black" points="514,-166.5 514,-70.5 "/>
<path fill="none" stroke="black" d="M514,-70.5C514,-64.5 520,-58.5 526,-58.5"/>
<text text-anchor="middle" x="598" y="-161.9" font-family="Times Roman,serif" font-size="14.00">ExperiencesController</text>
<polyline fill="none" stroke="black" points="514,-152.5 682,-152.5 "/>
<text text-anchor="start" x="522" y="-135.9" font-family="Times Roman,serif" font-size="14.00">create</text>
<text text-anchor="start" x="522" y="-117.9" font-family="Times Roman,serif" font-size="14.00">new</text>
<polyline fill="none" stroke="black" points="514,-108.5 682,-108.5 "/>
<polyline fill="none" stroke="black" points="514,-84.5 682,-84.5 "/>
<text text-anchor="start" x="522" y="-67.9" font-family="Times Roman,serif" font-size="14.00">_layout</text>
</g>
<!-- FriendshipsController -->
<g id="node6" class="node"><title>FriendshipsController</title>
<polyline fill="none" stroke="black" points="716,-932.5 855,-932.5 "/>
<path fill="none" stroke="black" d="M855,-932.5C861,-932.5 867,-938.5 867,-944.5"/>
<polyline fill="none" stroke="black" points="867,-944.5 867,-1040.5 "/>
<path fill="none" stroke="black" d="M867,-1040.5C867,-1046.5 861,-1052.5 855,-1052.5"/>
<polyline fill="none" stroke="black" points="855,-1052.5 716,-1052.5 "/>
<path fill="none" stroke="black" d="M716,-1052.5C710,-1052.5 704,-1046.5 704,-1040.5"/>
<polyline fill="none" stroke="black" points="704,-1040.5 704,-944.5 "/>
<path fill="none" stroke="black" d="M704,-944.5C704,-938.5 710,-932.5 716,-932.5"/>
<text text-anchor="middle" x="785.5" y="-1035.9" font-family="Times Roman,serif" font-size="14.00">FriendshipsController</text>
<polyline fill="none" stroke="black" points="704,-1026.5 867,-1026.5 "/>
<text text-anchor="start" x="712" y="-1009.9" font-family="Times Roman,serif" font-size="14.00">create</text>
<text text-anchor="start" x="712" y="-991.9" font-family="Times Roman,serif" font-size="14.00">destroy</text>
<polyline fill="none" stroke="black" points="704,-982.5 867,-982.5 "/>
<polyline fill="none" stroke="black" points="704,-958.5 867,-958.5 "/>
<text text-anchor="start" x="712" y="-941.9" font-family="Times Roman,serif" font-size="14.00">_layout</text>
</g>
<!-- RequestsController -->
<g id="node7" class="node"><title>RequestsController</title>
<polyline fill="none" stroke="black" points="811,-153.5 935,-153.5 "/>
<path fill="none" stroke="black" d="M935,-153.5C941,-153.5 947,-159.5 947,-165.5"/>
<polyline fill="none" stroke="black" points="947,-165.5 947,-297.5 "/>
<path fill="none" stroke="black" d="M947,-297.5C947,-303.5 941,-309.5 935,-309.5"/>
<polyline fill="none" stroke="black" points="935,-309.5 811,-309.5 "/>
<path fill="none" stroke="black" d="M811,-309.5C805,-309.5 799,-303.5 799,-297.5"/>
<polyline fill="none" stroke="black" points="799,-297.5 799,-165.5 "/>
<path fill="none" stroke="black" d="M799,-165.5C799,-159.5 805,-153.5 811,-153.5"/>
<text text-anchor="middle" x="873" y="-292.9" font-family="Times Roman,serif" font-size="14.00">RequestsController</text>
<polyline fill="none" stroke="black" points="799,-283.5 947,-283.5 "/>
<text text-anchor="start" x="807" y="-266.9" font-family="Times Roman,serif" font-size="14.00">create</text>
<text text-anchor="start" x="807" y="-248.9" font-family="Times Roman,serif" font-size="14.00">destroy</text>
<text text-anchor="start" x="807" y="-230.9" font-family="Times Roman,serif" font-size="14.00">send_request</text>
<text text-anchor="start" x="807" y="-212.9" font-family="Times Roman,serif" font-size="14.00">show</text>
<polyline fill="none" stroke="black" points="799,-203.5 947,-203.5 "/>
<polyline fill="none" stroke="black" points="799,-179.5 947,-179.5 "/>
<text text-anchor="start" x="807" y="-162.9" font-family="Times Roman,serif" font-size="14.00">_layout</text>
</g>
<!-- ApplicationController -->
<g id="node8" class="node"><title>ApplicationController</title>
<polyline fill="none" stroke="black" points="241,-210.5 464,-210.5 "/>
<path fill="none" stroke="black" d="M464,-210.5C470,-210.5 476,-216.5 476,-222.5"/>
<polyline fill="none" stroke="black" points="476,-222.5 476,-318.5 "/>
<path fill="none" stroke="black" d="M476,-318.5C476,-324.5 470,-330.5 464,-330.5"/>
<polyline fill="none" stroke="black" points="464,-330.5 241,-330.5 "/>
<path fill="none" stroke="black" d="M241,-330.5C235,-330.5 229,-324.5 229,-318.5"/>
<polyline fill="none" stroke="black" points="229,-318.5 229,-222.5 "/>
<path fill="none" stroke="black" d="M229,-222.5C229,-216.5 235,-210.5 241,-210.5"/>
<text text-anchor="middle" x="352.5" y="-313.9" font-family="Times Roman,serif" font-size="14.00">ApplicationController</text>
<polyline fill="none" stroke="black" points="229,-304.5 476,-304.5 "/>
<text text-anchor="start" x="237" y="-287.9" font-family="Times Roman,serif" font-size="14.00">_one_time_conditions_valid_300?</text>
<polyline fill="none" stroke="black" points="229,-278.5 476,-278.5 "/>
<polyline fill="none" stroke="black" points="229,-254.5 476,-254.5 "/>
<text text-anchor="start" x="237" y="-237.9" font-family="Times Roman,serif" font-size="14.00">_layout</text>
<text text-anchor="start" x="237" y="-219.9" font-family="Times Roman,serif" font-size="14.00">current_event</text>
</g>
<!-- CommentsController -->
<g id="node9" class="node"><title>CommentsController</title>
<polyline fill="none" stroke="black" points="697,-666.5 832,-666.5 "/>
<path fill="none" stroke="black" d="M832,-666.5C838,-666.5 844,-672.5 844,-678.5"/>
<polyline fill="none" stroke="black" points="844,-678.5 844,-882.5 "/>
<path fill="none" stroke="black" d="M844,-882.5C844,-888.5 838,-894.5 832,-894.5"/>
<polyline fill="none" stroke="black" points="832,-894.5 697,-894.5 "/>
<path fill="none" stroke="black" d="M697,-894.5C691,-894.5 685,-888.5 685,-882.5"/>
<polyline fill="none" stroke="black" points="685,-882.5 685,-678.5 "/>
<path fill="none" stroke="black" d="M685,-678.5C685,-672.5 691,-666.5 697,-666.5"/>
<text text-anchor="middle" x="764.5" y="-877.9" font-family="Times Roman,serif" font-size="14.00">CommentsController</text>
<polyline fill="none" stroke="black" points="685,-868.5 844,-868.5 "/>
<text text-anchor="start" x="693" y="-851.9" font-family="Times Roman,serif" font-size="14.00">create</text>
<text text-anchor="start" x="693" y="-833.9" font-family="Times Roman,serif" font-size="14.00">destroy</text>
<text text-anchor="start" x="693" y="-815.9" font-family="Times Roman,serif" font-size="14.00">edit</text>
<text text-anchor="start" x="693" y="-797.9" font-family="Times Roman,serif" font-size="14.00">index</text>
<text text-anchor="start" x="693" y="-779.9" font-family="Times Roman,serif" font-size="14.00">new</text>
<text text-anchor="start" x="693" y="-761.9" font-family="Times Roman,serif" font-size="14.00">show</text>
<text text-anchor="start" x="693" y="-743.9" font-family="Times Roman,serif" font-size="14.00">update</text>
<polyline fill="none" stroke="black" points="685,-734.5 844,-734.5 "/>
<polyline fill="none" stroke="black" points="685,-710.5 844,-710.5 "/>
<text text-anchor="start" x="693" y="-693.9" font-family="Times Roman,serif" font-size="14.00">_layout</text>
<text text-anchor="start" x="693" y="-675.9" font-family="Times Roman,serif" font-size="14.00">find_commentable</text>
</g>
<!-- EducationsController -->
<g id="node10" class="node"><title>EducationsController</title>
<polyline fill="none" stroke="black" points="89,-58.5 226,-58.5 "/>
<path fill="none" stroke="black" d="M226,-58.5C232,-58.5 238,-64.5 238,-70.5"/>
<polyline fill="none" stroke="black" points="238,-70.5 238,-166.5 "/>
<path fill="none" stroke="black" d="M238,-166.5C238,-172.5 232,-178.5 226,-178.5"/>
<polyline fill="none" stroke="black" points="226,-178.5 89,-178.5 "/>
<path fill="none" stroke="black" d="M89,-178.5C83,-178.5 77,-172.5 77,-166.5"/>
<polyline fill="none" stroke="black" points="77,-166.5 77,-70.5 "/>
<path fill="none" stroke="black" d="M77,-70.5C77,-64.5 83,-58.5 89,-58.5"/>
<text text-anchor="middle" x="157.5" y="-161.9" font-family="Times Roman,serif" font-size="14.00">EducationsController</text>
<polyline fill="none" stroke="black" points="77,-152.5 238,-152.5 "/>
<text text-anchor="start" x="85" y="-135.9" font-family="Times Roman,serif" font-size="14.00">create</text>
<text text-anchor="start" x="85" y="-117.9" font-family="Times Roman,serif" font-size="14.00">new</text>
<polyline fill="none" stroke="black" points="77,-108.5 238,-108.5 "/>
<polyline fill="none" stroke="black" points="77,-84.5 238,-84.5 "/>
<text text-anchor="start" x="85" y="-67.9" font-family="Times Roman,serif" font-size="14.00">_layout</text>
</g>
<!-- HomeController -->
<g id="node11" class="node"><title>HomeController</title>
<polyline fill="none" stroke="black" points="70,-267.5 171,-267.5 "/>
<path fill="none" stroke="black" d="M171,-267.5C177,-267.5 183,-273.5 183,-279.5"/>
<polyline fill="none" stroke="black" points="183,-279.5 183,-393.5 "/>
<path fill="none" stroke="black" d="M183,-393.5C183,-399.5 177,-405.5 171,-405.5"/>
<polyline fill="none" stroke="black" points="171,-405.5 70,-405.5 "/>
<path fill="none" stroke="black" d="M70,-405.5C64,-405.5 58,-399.5 58,-393.5"/>
<polyline fill="none" stroke="black" points="58,-393.5 58,-279.5 "/>
<path fill="none" stroke="black" d="M58,-279.5C58,-273.5 64,-267.5 70,-267.5"/>
<text text-anchor="middle" x="120.5" y="-388.9" font-family="Times Roman,serif" font-size="14.00">HomeController</text>
<polyline fill="none" stroke="black" points="58,-379.5 183,-379.5 "/>
<text text-anchor="start" x="66" y="-362.9" font-family="Times Roman,serif" font-size="14.00">after_login</text>
<text text-anchor="start" x="66" y="-344.9" font-family="Times Roman,serif" font-size="14.00">landing</text>
<text text-anchor="start" x="66" y="-326.9" font-family="Times Roman,serif" font-size="14.00">show</text>
<polyline fill="none" stroke="black" points="58,-317.5 183,-317.5 "/>
<polyline fill="none" stroke="black" points="58,-293.5 183,-293.5 "/>
<text text-anchor="start" x="66" y="-276.9" font-family="Times Roman,serif" font-size="14.00">_layout</text>
</g>
<!-- RepliesController -->
<g id="node12" class="node"><title>RepliesController</title>
<polyline fill="none" stroke="black" points="336,-951.5 446,-951.5 "/>
<path fill="none" stroke="black" d="M446,-951.5C452,-951.5 458,-957.5 458,-963.5"/>
<polyline fill="none" stroke="black" points="458,-963.5 458,-1059.5 "/>
<path fill="none" stroke="black" d="M458,-1059.5C458,-1065.5 452,-1071.5 446,-1071.5"/>
<polyline fill="none" stroke="black" points="446,-1071.5 336,-1071.5 "/>
<path fill="none" stroke="black" d="M336,-1071.5C330,-1071.5 324,-1065.5 324,-1059.5"/>
<polyline fill="none" stroke="black" points="324,-1059.5 324,-963.5 "/>
<path fill="none" stroke="black" d="M324,-963.5C324,-957.5 330,-951.5 336,-951.5"/>
<text text-anchor="middle" x="391" y="-1054.9" font-family="Times Roman,serif" font-size="14.00">RepliesController</text>
<polyline fill="none" stroke="black" points="324,-1045.5 458,-1045.5 "/>
<text text-anchor="start" x="332" y="-1028.9" font-family="Times Roman,serif" font-size="14.00">create</text>
<text text-anchor="start" x="332" y="-1010.9" font-family="Times Roman,serif" font-size="14.00">new</text>
<polyline fill="none" stroke="black" points="324,-1001.5 458,-1001.5 "/>
<polyline fill="none" stroke="black" points="324,-977.5 458,-977.5 "/>
<text text-anchor="start" x="332" y="-960.9" font-family="Times Roman,serif" font-size="14.00">_layout</text>
</g>
<!-- ProfilesController -->
<g id="node13" class="node"><title>ProfilesController</title>
<polyline fill="none" stroke="black" points="222,-438.5 334,-438.5 "/>
<path fill="none" stroke="black" d="M334,-438.5C340,-438.5 346,-444.5 346,-450.5"/>
<polyline fill="none" stroke="black" points="346,-450.5 346,-636.5 "/>
<path fill="none" stroke="black" d="M346,-636.5C346,-642.5 340,-648.5 334,-648.5"/>
<polyline fill="none" stroke="black" points="334,-648.5 222,-648.5 "/>
<path fill="none" stroke="black" d="M222,-648.5C216,-648.5 210,-642.5 210,-636.5"/>
<polyline fill="none" stroke="black" points="210,-636.5 210,-450.5 "/>
<path fill="none" stroke="black" d="M210,-450.5C210,-444.5 216,-438.5 222,-438.5"/>
<text text-anchor="middle" x="278" y="-631.9" font-family="Times Roman,serif" font-size="14.00">ProfilesController</text>
<polyline fill="none" stroke="black" points="210,-622.5 346,-622.5 "/>
<text text-anchor="start" x="218" y="-605.9" font-family="Times Roman,serif" font-size="14.00">create</text>
<text text-anchor="start" x="218" y="-587.9" font-family="Times Roman,serif" font-size="14.00">destroy</text>
<text text-anchor="start" x="218" y="-569.9" font-family="Times Roman,serif" font-size="14.00">edit</text>
<text text-anchor="start" x="218" y="-551.9" font-family="Times Roman,serif" font-size="14.00">index</text>
<text text-anchor="start" x="218" y="-533.9" font-family="Times Roman,serif" font-size="14.00">new</text>
<text text-anchor="start" x="218" y="-515.9" font-family="Times Roman,serif" font-size="14.00">show</text>
<text text-anchor="start" x="218" y="-497.9" font-family="Times Roman,serif" font-size="14.00">update</text>
<polyline fill="none" stroke="black" points="210,-488.5 346,-488.5 "/>
<polyline fill="none" stroke="black" points="210,-464.5 346,-464.5 "/>
<text text-anchor="start" x="218" y="-447.9" font-family="Times Roman,serif" font-size="14.00">_layout</text>
</g>
<!-- LanguagesController -->
<g id="node14" class="node"><title>LanguagesController</title>
<polyline fill="none" stroke="black" points="279,-58.5 415,-58.5 "/>
<path fill="none" stroke="black" d="M415,-58.5C421,-58.5 427,-64.5 427,-70.5"/>
<polyline fill="none" stroke="black" points="427,-70.5 427,-166.5 "/>
<path fill="none" stroke="black" d="M427,-166.5C427,-172.5 421,-178.5 415,-178.5"/>
<polyline fill="none" stroke="black" points="415,-178.5 279,-178.5 "/>
<path fill="none" stroke="black" d="M279,-178.5C273,-178.5 267,-172.5 267,-166.5"/>
<polyline fill="none" stroke="black" points="267,-166.5 267,-70.5 "/>
<path fill="none" stroke="black" d="M267,-70.5C267,-64.5 273,-58.5 279,-58.5"/>
<text text-anchor="middle" x="347" y="-161.9" font-family="Times Roman,serif" font-size="14.00">LanguagesController</text>
<polyline fill="none" stroke="black" points="267,-152.5 427,-152.5 "/>
<text text-anchor="start" x="275" y="-135.9" font-family="Times Roman,serif" font-size="14.00">create</text>
<text text-anchor="start" x="275" y="-117.9" font-family="Times Roman,serif" font-size="14.00">new</text>
<polyline fill="none" stroke="black" points="267,-108.5 427,-108.5 "/>
<polyline fill="none" stroke="black" points="267,-84.5 427,-84.5 "/>
<text text-anchor="start" x="275" y="-67.9" font-family="Times Roman,serif" font-size="14.00">_layout</text>
</g>
<!-- RegistrationsController -->
<g id="node15" class="node"><title>RegistrationsController</title>
<polyline fill="none" stroke="black" points="507,-951.5 659,-951.5 "/>
<path fill="none" stroke="black" d="M659,-951.5C665,-951.5 671,-957.5 671,-963.5"/>
<polyline fill="none" stroke="black" points="671,-963.5 671,-1043.5 "/>
<path fill="none" stroke="black" d="M671,-1043.5C671,-1049.5 665,-1055.5 659,-1055.5"/>
<polyline fill="none" stroke="black" points="659,-1055.5 507,-1055.5 "/>
<path fill="none" stroke="black" d="M507,-1055.5C501,-1055.5 495,-1049.5 495,-1043.5"/>
<polyline fill="none" stroke="black" points="495,-1043.5 495,-963.5 "/>
<path fill="none" stroke="black" d="M495,-963.5C495,-957.5 501,-951.5 507,-951.5"/>
<text text-anchor="middle" x="583" y="-1038.9" font-family="Times Roman,serif" font-size="14.00">RegistrationsController</text>
<polyline fill="none" stroke="black" points="495,-1029.5 671,-1029.5 "/>
<text text-anchor="start" x="503" y="-1012.9" font-family="Times Roman,serif" font-size="14.00">create</text>
<polyline fill="none" stroke="black" points="495,-1003.5 671,-1003.5 "/>
<text text-anchor="start" x="503" y="-986.9" font-family="Times Roman,serif" font-size="14.00">after_sign_up_path_for</text>
<polyline fill="none" stroke="black" points="495,-977.5 671,-977.5 "/>
<text text-anchor="start" x="503" y="-960.9" font-family="Times Roman,serif" font-size="14.00">_layout</text>
</g>
<!-- PagesController -->
<g id="node16" class="node"><title>PagesController</title>
<polyline fill="none" stroke="black" points="393,-362.5 616,-362.5 "/>
<path fill="none" stroke="black" d="M616,-362.5C622,-362.5 628,-368.5 628,-374.5"/>
<polyline fill="none" stroke="black" points="628,-374.5 628,-614.5 "/>
<path fill="none" stroke="black" d="M628,-614.5C628,-620.5 622,-626.5 616,-626.5"/>
<polyline fill="none" stroke="black" points="616,-626.5 393,-626.5 "/>
<path fill="none" stroke="black" d="M393,-626.5C387,-626.5 381,-620.5 381,-614.5"/>
<polyline fill="none" stroke="black" points="381,-614.5 381,-374.5 "/>
<path fill="none" stroke="black" d="M381,-374.5C381,-368.5 387,-362.5 393,-362.5"/>
<text text-anchor="middle" x="504.5" y="-609.9" font-family="Times Roman,serif" font-size="14.00">PagesController</text>
<polyline fill="none" stroke="black" points="381,-600.5 628,-600.5 "/>
<text text-anchor="start" x="389" y="-583.9" font-family="Times Roman,serif" font-size="14.00">_callback_before_311</text>
<text text-anchor="start" x="389" y="-565.9" font-family="Times Roman,serif" font-size="14.00">_one_time_conditions_valid_312?</text>
<text text-anchor="start" x="389" y="-547.9" font-family="Times Roman,serif" font-size="14.00">create</text>
<text text-anchor="start" x="389" y="-529.9" font-family="Times Roman,serif" font-size="14.00">destroy</text>
<text text-anchor="start" x="389" y="-511.9" font-family="Times Roman,serif" font-size="14.00">edit</text>
<text text-anchor="start" x="389" y="-493.9" font-family="Times Roman,serif" font-size="14.00">index</text>
<text text-anchor="start" x="389" y="-475.9" font-family="Times Roman,serif" font-size="14.00">new</text>
<text text-anchor="start" x="389" y="-457.9" font-family="Times Roman,serif" font-size="14.00">show</text>
<text text-anchor="start" x="389" y="-439.9" font-family="Times Roman,serif" font-size="14.00">update</text>
<polyline fill="none" stroke="black" points="381,-430.5 628,-430.5 "/>
<polyline fill="none" stroke="black" points="381,-406.5 628,-406.5 "/>
<text text-anchor="start" x="389" y="-389.9" font-family="Times Roman,serif" font-size="14.00">_layout</text>
<text text-anchor="start" x="389" y="-371.9" font-family="Times Roman,serif" font-size="14.00">find_pageable</text>
</g>
<!-- AboutController -->
<g id="node17" class="node"><title>AboutController</title>
<polyline fill="none" stroke="black" points="13,-1008.5 116,-1008.5 "/>
<path fill="none" stroke="black" d="M116,-1008.5C122,-1008.5 128,-1014.5 128,-1020.5"/>
<polyline fill="none" stroke="black" points="128,-1020.5 128,-1096.5 "/>
<path fill="none" stroke="black" d="M128,-1096.5C128,-1102.5 122,-1108.5 116,-1108.5"/>
<polyline fill="none" stroke="black" points="116,-1108.5 13,-1108.5 "/>
<path fill="none" stroke="black" d="M13,-1108.5C7,-1108.5 1,-1102.5 1,-1096.5"/>
<polyline fill="none" stroke="black" points="1,-1096.5 1,-1020.5 "/>
<path fill="none" stroke="black" d="M1,-1020.5C1,-1014.5 7,-1008.5 13,-1008.5"/>
<text text-anchor="middle" x="64.5" y="-1091.9" font-family="Times Roman,serif" font-size="14.00">AboutController</text>
<polyline fill="none" stroke="black" points="1,-1082.5 128,-1082.5 "/>
<polyline fill="none" stroke="black" points="1,-1058.5 128,-1058.5 "/>
<polyline fill="none" stroke="black" points="1,-1034.5 128,-1034.5 "/>
<text text-anchor="start" x="9" y="-1017.9" font-family="Times Roman,serif" font-size="14.00">_layout</text>
</g>
<!-- PreferencesController -->
<g id="node18" class="node"><title>PreferencesController</title>
<polyline fill="none" stroke="black" points="1001,-20.5 1144,-20.5 "/>
<path fill="none" stroke="black" d="M1144,-20.5C1150,-20.5 1156,-26.5 1156,-32.5"/>
<polyline fill="none" stroke="black" points="1156,-32.5 1156,-128.5 "/>
<path fill="none" stroke="black" d="M1156,-128.5C1156,-134.5 1150,-140.5 1144,-140.5"/>
<polyline fill="none" stroke="black" points="1144,-140.5 1001,-140.5 "/>
<path fill="none" stroke="black" d="M1001,-140.5C995,-140.5 989,-134.5 989,-128.5"/>
<polyline fill="none" stroke="black" points="989,-128.5 989,-32.5 "/>
<path fill="none" stroke="black" d="M989,-32.5C989,-26.5 995,-20.5 1001,-20.5"/>
<text text-anchor="middle" x="1072.5" y="-123.9" font-family="Times Roman,serif" font-size="14.00">PreferencesController</text>
<polyline fill="none" stroke="black" points="989,-114.5 1156,-114.5 "/>
<text text-anchor="start" x="997" y="-97.9" font-family="Times Roman,serif" font-size="14.00">create</text>
<text text-anchor="start" x="997" y="-79.9" font-family="Times Roman,serif" font-size="14.00">new</text>
<polyline fill="none" stroke="black" points="989,-70.5 1156,-70.5 "/>
<polyline fill="none" stroke="black" points="989,-46.5 1156,-46.5 "/>
<text text-anchor="start" x="997" y="-29.9" font-family="Times Roman,serif" font-size="14.00">_layout</text>
</g>
<!-- LikesController -->
<g id="node19" class="node"><title>LikesController</title>
<polyline fill="none" stroke="black" points="70,-495.5 166,-495.5 "/>
<path fill="none" stroke="black" d="M166,-495.5C172,-495.5 178,-501.5 178,-507.5"/>
<polyline fill="none" stroke="black" points="178,-507.5 178,-603.5 "/>
<path fill="none" stroke="black" d="M178,-603.5C178,-609.5 172,-615.5 166,-615.5"/>
<polyline fill="none" stroke="black" points="166,-615.5 70,-615.5 "/>
<path fill="none" stroke="black" d="M70,-615.5C64,-615.5 58,-609.5 58,-603.5"/>
<polyline fill="none" stroke="black" points="58,-603.5 58,-507.5 "/>
<path fill="none" stroke="black" d="M58,-507.5C58,-501.5 64,-495.5 70,-495.5"/>
<text text-anchor="middle" x="118" y="-598.9" font-family="Times Roman,serif" font-size="14.00">LikesController</text>
<polyline fill="none" stroke="black" points="58,-589.5 178,-589.5 "/>
<text text-anchor="start" x="66" y="-572.9" font-family="Times Roman,serif" font-size="14.00">create</text>
<polyline fill="none" stroke="black" points="58,-563.5 178,-563.5 "/>
<polyline fill="none" stroke="black" points="58,-539.5 178,-539.5 "/>
<text text-anchor="start" x="66" y="-522.9" font-family="Times Roman,serif" font-size="14.00">_layout</text>
<text text-anchor="start" x="66" y="-504.9" font-family="Times Roman,serif" font-size="14.00">find_likeable</text>
</g>
<!-- MessagesController -->
<g id="node20" class="node"><title>MessagesController</title>
<polyline fill="none" stroke="black" points="678,-343.5 860,-343.5 "/>
<path fill="none" stroke="black" d="M860,-343.5C866,-343.5 872,-349.5 872,-355.5"/>
<polyline fill="none" stroke="black" points="872,-355.5 872,-613.5 "/>
<path fill="none" stroke="black" d="M872,-613.5C872,-619.5 866,-625.5 860,-625.5"/>
<polyline fill="none" stroke="black" points="860,-625.5 678,-625.5 "/>
<path fill="none" stroke="black" d="M678,-625.5C672,-625.5 666,-619.5 666,-613.5"/>
<polyline fill="none" stroke="black" points="666,-613.5 666,-355.5 "/>
<path fill="none" stroke="black" d="M666,-355.5C666,-349.5 672,-343.5 678,-343.5"/>
<text text-anchor="middle" x="769" y="-608.9" font-family="Times Roman,serif" font-size="14.00">MessagesController</text>
<polyline fill="none" stroke="black" points="666,-599.5 872,-599.5 "/>
<text text-anchor="start" x="674" y="-582.9" font-family="Times Roman,serif" font-size="14.00">all</text>
<text text-anchor="start" x="674" y="-564.9" font-family="Times Roman,serif" font-size="14.00">create</text>
<text text-anchor="start" x="674" y="-546.9" font-family="Times Roman,serif" font-size="14.00">destroy</text>
<text text-anchor="start" x="674" y="-528.9" font-family="Times Roman,serif" font-size="14.00">edit</text>
<text text-anchor="start" x="674" y="-510.9" font-family="Times Roman,serif" font-size="14.00">find_recipient_from_params</text>
<text text-anchor="start" x="674" y="-492.9" font-family="Times Roman,serif" font-size="14.00">inbox</text>
<text text-anchor="start" x="674" y="-474.9" font-family="Times Roman,serif" font-size="14.00">index</text>
<text text-anchor="start" x="674" y="-456.9" font-family="Times Roman,serif" font-size="14.00">new</text>
<text text-anchor="start" x="674" y="-438.9" font-family="Times Roman,serif" font-size="14.00">sentbox</text>
<text text-anchor="start" x="674" y="-420.9" font-family="Times Roman,serif" font-size="14.00">show</text>
<text text-anchor="start" x="674" y="-402.9" font-family="Times Roman,serif" font-size="14.00">trash</text>
<polyline fill="none" stroke="black" points="666,-393.5 872,-393.5 "/>
<polyline fill="none" stroke="black" points="666,-369.5 872,-369.5 "/>
<text text-anchor="start" x="674" y="-352.9" font-family="Times Roman,serif" font-size="14.00">_layout</text>
</g>
<!-- CompetenciesController -->
<g id="node21" class="node"><title>CompetenciesController</title>
<polyline fill="none" stroke="black" points="925,-343.5 1083,-343.5 "/>
<path fill="none" stroke="black" d="M1083,-343.5C1089,-343.5 1095,-349.5 1095,-355.5"/>
<polyline fill="none" stroke="black" points="1095,-355.5 1095,-451.5 "/>
<path fill="none" stroke="black" d="M1095,-451.5C1095,-457.5 1089,-463.5 1083,-463.5"/>
<polyline fill="none" stroke="black" points="1083,-463.5 925,-463.5 "/>
<path fill="none" stroke="black" d="M925,-463.5C919,-463.5 913,-457.5 913,-451.5"/>
<polyline fill="none" stroke="black" points="913,-451.5 913,-355.5 "/>
<path fill="none" stroke="black" d="M913,-355.5C913,-349.5 919,-343.5 925,-343.5"/>
<text text-anchor="middle" x="1004" y="-446.9" font-family="Times Roman,serif" font-size="14.00">CompetenciesController</text>
<polyline fill="none" stroke="black" points="913,-437.5 1095,-437.5 "/>
<text text-anchor="start" x="921" y="-420.9" font-family="Times Roman,serif" font-size="14.00">create</text>
<text text-anchor="start" x="921" y="-402.9" font-family="Times Roman,serif" font-size="14.00">new</text>
<polyline fill="none" stroke="black" points="913,-393.5 1095,-393.5 "/>
<polyline fill="none" stroke="black" points="913,-369.5 1095,-369.5 "/>
<text text-anchor="start" x="921" y="-352.9" font-family="Times Roman,serif" font-size="14.00">_layout</text>
</g>
<!-- UsersController -->
<g id="node22" class="node"><title>UsersController</title>
<polyline fill="none" stroke="black" points="507,-666.5 636,-666.5 "/>
<path fill="none" stroke="black" d="M636,-666.5C642,-666.5 648,-672.5 648,-678.5"/>
<polyline fill="none" stroke="black" points="648,-678.5 648,-900.5 "/>
<path fill="none" stroke="black" d="M648,-900.5C648,-906.5 642,-912.5 636,-912.5"/>
<polyline fill="none" stroke="black" points="636,-912.5 507,-912.5 "/>
<path fill="none" stroke="black" d="M507,-912.5C501,-912.5 495,-906.5 495,-900.5"/>
<polyline fill="none" stroke="black" points="495,-900.5 495,-678.5 "/>
<path fill="none" stroke="black" d="M495,-678.5C495,-672.5 501,-666.5 507,-666.5"/>
<text text-anchor="middle" x="571.5" y="-895.9" font-family="Times Roman,serif" font-size="14.00">UsersController</text>
<polyline fill="none" stroke="black" points="495,-886.5 648,-886.5 "/>
<text text-anchor="start" x="503" y="-869.9" font-family="Times Roman,serif" font-size="14.00">create</text>
<text text-anchor="start" x="503" y="-851.9" font-family="Times Roman,serif" font-size="14.00">destroy</text>
<text text-anchor="start" x="503" y="-833.9" font-family="Times Roman,serif" font-size="14.00">edit</text>
<text text-anchor="start" x="503" y="-815.9" font-family="Times Roman,serif" font-size="14.00">index</text>
<text text-anchor="start" x="503" y="-797.9" font-family="Times Roman,serif" font-size="14.00">new</text>
<text text-anchor="start" x="503" y="-779.9" font-family="Times Roman,serif" font-size="14.00">profile</text>
<text text-anchor="start" x="503" y="-761.9" font-family="Times Roman,serif" font-size="14.00">show</text>
<text text-anchor="start" x="503" y="-743.9" font-family="Times Roman,serif" font-size="14.00">show_by_username</text>
<text text-anchor="start" x="503" y="-725.9" font-family="Times Roman,serif" font-size="14.00">update</text>
<polyline fill="none" stroke="black" points="495,-716.5 648,-716.5 "/>
<polyline fill="none" stroke="black" points="495,-692.5 648,-692.5 "/>
<text text-anchor="start" x="503" y="-675.9" font-family="Times Roman,serif" font-size="14.00">_layout</text>
</g>
<!-- PostsController -->
<g id="node23" class="node"><title>PostsController</title>
<polyline fill="none" stroke="black" points="735,-1.5 833,-1.5 "/>
<path fill="none" stroke="black" d="M833,-1.5C839,-1.5 845,-7.5 845,-13.5"/>
<polyline fill="none" stroke="black" points="845,-13.5 845,-109.5 "/>
<path fill="none" stroke="black" d="M845,-109.5C845,-115.5 839,-121.5 833,-121.5"/>
<polyline fill="none" stroke="black" points="833,-121.5 735,-121.5 "/>
<path fill="none" stroke="black" d="M735,-121.5C729,-121.5 723,-115.5 723,-109.5"/>
<polyline fill="none" stroke="black" points="723,-109.5 723,-13.5 "/>
<path fill="none" stroke="black" d="M723,-13.5C723,-7.5 729,-1.5 735,-1.5"/>
<text text-anchor="middle" x="784" y="-104.9" font-family="Times Roman,serif" font-size="14.00">PostsController</text>
<polyline fill="none" stroke="black" points="723,-95.5 845,-95.5 "/>
<text text-anchor="start" x="731" y="-78.9" font-family="Times Roman,serif" font-size="14.00">create</text>
<text text-anchor="start" x="731" y="-60.9" font-family="Times Roman,serif" font-size="14.00">destroy</text>
<polyline fill="none" stroke="black" points="723,-51.5 845,-51.5 "/>
<polyline fill="none" stroke="black" points="723,-27.5 845,-27.5 "/>
<text text-anchor="start" x="731" y="-10.9" font-family="Times Roman,serif" font-size="14.00">_layout</text>
</g>
<!-- GroupsController -->
<g id="node24" class="node"><title>GroupsController</title>
<polyline fill="none" stroke="black" points="336,-685.5 447,-685.5 "/>
<path fill="none" stroke="black" d="M447,-685.5C453,-685.5 459,-691.5 459,-697.5"/>
<polyline fill="none" stroke="black" points="459,-697.5 459,-901.5 "/>
<path fill="none" stroke="black" d="M459,-901.5C459,-907.5 453,-913.5 447,-913.5"/>
<polyline fill="none" stroke="black" points="447,-913.5 336,-913.5 "/>
<path fill="none" stroke="black" d="M336,-913.5C330,-913.5 324,-907.5 324,-901.5"/>
<polyline fill="none" stroke="black" points="324,-901.5 324,-697.5 "/>
<path fill="none" stroke="black" d="M324,-697.5C324,-691.5 330,-685.5 336,-685.5"/>
<text text-anchor="middle" x="391.5" y="-896.9" font-family="Times Roman,serif" font-size="14.00">GroupsController</text>
<polyline fill="none" stroke="black" points="324,-887.5 459,-887.5 "/>
<text text-anchor="start" x="332" y="-870.9" font-family="Times Roman,serif" font-size="14.00">create</text>
<text text-anchor="start" x="332" y="-852.9" font-family="Times Roman,serif" font-size="14.00">destroy</text>
<text text-anchor="start" x="332" y="-834.9" font-family="Times Roman,serif" font-size="14.00">index</text>
<text text-anchor="start" x="332" y="-816.9" font-family="Times Roman,serif" font-size="14.00">join</text>
<text text-anchor="start" x="332" y="-798.9" font-family="Times Roman,serif" font-size="14.00">leave</text>
<text text-anchor="start" x="332" y="-780.9" font-family="Times Roman,serif" font-size="14.00">new</text>
<text text-anchor="start" x="332" y="-762.9" font-family="Times Roman,serif" font-size="14.00">show</text>
<text text-anchor="start" x="332" y="-744.9" font-family="Times Roman,serif" font-size="14.00">update</text>
<polyline fill="none" stroke="black" points="324,-735.5 459,-735.5 "/>
<polyline fill="none" stroke="black" points="324,-711.5 459,-711.5 "/>
<text text-anchor="start" x="332" y="-694.9" font-family="Times Roman,serif" font-size="14.00">_layout</text>
</g>
<!-- MembershipsController -->
<g id="node25" class="node"><title>MembershipsController</title>
<polyline fill="none" stroke="black" points="925,-495.5 1077,-495.5 "/>
<path fill="none" stroke="black" d="M1077,-495.5C1083,-495.5 1089,-501.5 1089,-507.5"/>
<polyline fill="none" stroke="black" points="1089,-507.5 1089,-603.5 "/>
<path fill="none" stroke="black" d="M1089,-603.5C1089,-609.5 1083,-615.5 1077,-615.5"/>
<polyline fill="none" stroke="black" points="1077,-615.5 925,-615.5 "/>
<path fill="none" stroke="black" d="M925,-615.5C919,-615.5 913,-609.5 913,-603.5"/>
<polyline fill="none" stroke="black" points="913,-603.5 913,-507.5 "/>
<path fill="none" stroke="black" d="M913,-507.5C913,-501.5 919,-495.5 925,-495.5"/>
<text text-anchor="middle" x="1001" y="-598.9" font-family="Times Roman,serif" font-size="14.00">MembershipsController</text>
<polyline fill="none" stroke="black" points="913,-589.5 1089,-589.5 "/>
<text text-anchor="start" x="921" y="-572.9" font-family="Times Roman,serif" font-size="14.00">create</text>
<text text-anchor="start" x="921" y="-554.9" font-family="Times Roman,serif" font-size="14.00">destroy</text>
<polyline fill="none" stroke="black" points="913,-545.5 1089,-545.5 "/>
<polyline fill="none" stroke="black" points="913,-521.5 1089,-521.5 "/>
<text text-anchor="start" x="921" y="-504.9" font-family="Times Roman,serif" font-size="14.00">_layout</text>
</g>
<!-- EventsController -->
<g id="node26" class="node"><title>EventsController</title>
<polyline fill="none" stroke="black" points="887,-666.5 996,-666.5 "/>
<path fill="none" stroke="black" d="M996,-666.5C1002,-666.5 1008,-672.5 1008,-678.5"/>
<polyline fill="none" stroke="black" points="1008,-678.5 1008,-846.5 "/>
<path fill="none" stroke="black" d="M1008,-846.5C1008,-852.5 1002,-858.5 996,-858.5"/>
<polyline fill="none" stroke="black" points="996,-858.5 887,-858.5 "/>
<path fill="none" stroke="black" d="M887,-858.5C881,-858.5 875,-852.5 875,-846.5"/>
<polyline fill="none" stroke="black" points="875,-846.5 875,-678.5 "/>
<path fill="none" stroke="black" d="M875,-678.5C875,-672.5 881,-666.5 887,-666.5"/>
<text text-anchor="middle" x="941.5" y="-841.9" font-family="Times Roman,serif" font-size="14.00">EventsController</text>
<polyline fill="none" stroke="black" points="875,-832.5 1008,-832.5 "/>
<text text-anchor="start" x="883" y="-815.9" font-family="Times Roman,serif" font-size="14.00">add</text>
<text text-anchor="start" x="883" y="-797.9" font-family="Times Roman,serif" font-size="14.00">create</text>
<text text-anchor="start" x="883" y="-779.9" font-family="Times Roman,serif" font-size="14.00">destroy</text>
<text text-anchor="start" x="883" y="-761.9" font-family="Times Roman,serif" font-size="14.00">index</text>
<text text-anchor="start" x="883" y="-743.9" font-family="Times Roman,serif" font-size="14.00">show</text>
<text text-anchor="start" x="883" y="-725.9" font-family="Times Roman,serif" font-size="14.00">update</text>
<polyline fill="none" stroke="black" points="875,-716.5 1008,-716.5 "/>
<polyline fill="none" stroke="black" points="875,-692.5 1008,-692.5 "/>
<text text-anchor="start" x="883" y="-675.9" font-family="Times Roman,serif" font-size="14.00">_layout</text>
</g>
<!-- JobsController -->
<g id="node27" class="node"><title>JobsController</title>
<polyline fill="none" stroke="black" points="184,-837.5 273,-837.5 "/>
<path fill="none" stroke="black" d="M273,-837.5C279,-837.5 285,-843.5 285,-849.5"/>
<polyline fill="none" stroke="black" points="285,-849.5 285,-1035.5 "/>
<path fill="none" stroke="black" d="M285,-1035.5C285,-1041.5 279,-1047.5 273,-1047.5"/>
<polyline fill="none" stroke="black" points="273,-1047.5 184,-1047.5 "/>
<path fill="none" stroke="black" d="M184,-1047.5C178,-1047.5 172,-1041.5 172,-1035.5"/>
<polyline fill="none" stroke="black" points="172,-1035.5 172,-849.5 "/>
<path fill="none" stroke="black" d="M172,-849.5C172,-843.5 178,-837.5 184,-837.5"/>
<text text-anchor="middle" x="228.5" y="-1030.9" font-family="Times Roman,serif" font-size="14.00">JobsController</text>
<polyline fill="none" stroke="black" points="172,-1021.5 285,-1021.5 "/>
<text text-anchor="start" x="180" y="-1004.9" font-family="Times Roman,serif" font-size="14.00">create</text>
<text text-anchor="start" x="180" y="-986.9" font-family="Times Roman,serif" font-size="14.00">destroy</text>
<text text-anchor="start" x="180" y="-968.9" font-family="Times Roman,serif" font-size="14.00">edit</text>
<text text-anchor="start" x="180" y="-950.9" font-family="Times Roman,serif" font-size="14.00">index</text>
<text text-anchor="start" x="180" y="-932.9" font-family="Times Roman,serif" font-size="14.00">new</text>
<text text-anchor="start" x="180" y="-914.9" font-family="Times Roman,serif" font-size="14.00">show</text>
<text text-anchor="start" x="180" y="-896.9" font-family="Times Roman,serif" font-size="14.00">update</text>
<polyline fill="none" stroke="black" points="172,-887.5 285,-887.5 "/>
<polyline fill="none" stroke="black" points="172,-863.5 285,-863.5 "/>
<text text-anchor="start" x="180" y="-846.9" font-family="Times Roman,serif" font-size="14.00">_layout</text>
</g>
</g>
</svg>
