<?xml version="1.0" encoding="UTF-8" standalone="no"?>
<!DOCTYPE svg PUBLIC "-//W3C//DTD SVG 1.1//EN"
 "http://www.w3.org/Graphics/SVG/1.1/DTD/svg11.dtd">
<!-- Generated by graphviz version 2.26.3 (20100126.1600)
 -->
<!-- Title: models_diagram Pages: 1 -->
<svg width="2458pt" height="346pt"
 viewBox="0.00 0.00 2457.62 346.00" xmlns="http://www.w3.org/2000/svg" xmlns:xlink="http://www.w3.org/1999/xlink">
<g id="graph1" class="graph" transform="scale(1 1) rotate(0) translate(4 342)">
<title>models_diagram</title>
<polygon fill="white" stroke="white" points="-4,5 -4,-342 2454.62,-342 2454.62,5 -4,5"/>
<!-- _diagram_info -->
<g id="node1" class="node"><title>_diagram_info</title>
<text text-anchor="start" x="409.624" y="-321.8" font-family="Times Roman,serif" font-size="13.00">Models diagram</text>
<text text-anchor="start" x="409.624" y="-304.8" font-family="Times Roman,serif" font-size="13.00">Date: Jul 18 2012 &#45; 20:45</text>
<text text-anchor="start" x="409.624" y="-287.8" font-family="Times Roman,serif" font-size="13.00">Migration version: 20111127231846</text>
<text text-anchor="start" x="409.624" y="-270.8" font-family="Times Roman,serif" font-size="13.00">Generated by RailRoady 1.0.7</text>
<text text-anchor="start" x="409.624" y="-253.8" font-family="Times Roman,serif" font-size="13.00">http://railroady.prestonlee.com</text>
</g>
<!-- Job -->
<g id="node2" class="node"><title>Job</title>
<ellipse fill="none" stroke="black" cx="696.624" cy="-291" rx="27" ry="18.3848"/>
<text text-anchor="middle" x="696.624" y="-287.4" font-family="Times Roman,serif" font-size="14.00">Job</text>
</g>
<!-- Comment -->
<g id="node3" class="node"><title>Comment</title>
<ellipse fill="none" stroke="black" cx="175.624" cy="-19" rx="58.1882" ry="18.3848"/>
<text text-anchor="middle" x="175.624" y="-15.4" font-family="Times Roman,serif" font-size="14.00">Comment</text>
</g>
<!-- Group -->
<g id="node4" class="node"><title>Group</title>
<ellipse fill="none" stroke="black" cx="412.624" cy="-171" rx="41.2167" ry="18.3848"/>
<text text-anchor="middle" x="412.624" y="-167.4" font-family="Times Roman,serif" font-size="14.00">Group</text>
</g>
<!-- Membership -->
<g id="node20" class="node"><title>Membership</title>
<ellipse fill="none" stroke="black" cx="385.624" cy="-95" rx="70.2092" ry="18.3848"/>
<text text-anchor="middle" x="385.624" y="-91.4" font-family="Times Roman,serif" font-size="14.00">Membership</text>
</g>
<!-- Group&#45;&gt;Membership -->
<g id="edge2" class="edge"><title>Group&#45;&gt;Membership</title>
<path fill="none" stroke="#30ba08" d="M403.387,-144.999C400.914,-138.04 398.229,-130.482 395.714,-123.401"/>
<ellipse fill="none" stroke="#30ba08" cx="404.749" cy="-148.833" rx="4.00001" ry="4.00001"/>
<polygon fill="#30ba08" stroke="#30ba08" points="395.541,-122.914 396.434,-111.985 393.867,-118.203 392.193,-113.491 392.193,-113.491 392.193,-113.491 393.867,-118.203 387.953,-114.998 395.541,-122.914 395.541,-122.914"/>
</g>
<!-- Page -->
<g id="node30" class="node"><title>Page</title>
<ellipse fill="none" stroke="black" cx="508.624" cy="-95" rx="34.8574" ry="18.3848"/>
<text text-anchor="middle" x="508.624" y="-91.4" font-family="Times Roman,serif" font-size="14.00">Page</text>
</g>
<!-- Group&#45;&gt;Page -->
<g id="edge6" class="edge"><title>Group&#45;&gt;Page</title>
<path fill="none" stroke="#ef8e96" d="M439.459,-149.756C452.348,-139.552 467.783,-127.333 480.798,-117.029"/>
<ellipse fill="none" stroke="#ef8e96" cx="436.119" cy="-152.4" rx="4.00002" ry="4.00002"/>
<polygon fill="#ef8e96" stroke="#ef8e96" points="481.11,-116.782 491.744,-114.103 485.03,-113.678 488.951,-110.575 488.951,-110.575 488.951,-110.575 485.03,-113.678 486.158,-107.046 481.11,-116.782 481.11,-116.782"/>
</g>
<!-- User -->
<g id="node32" class="node"><title>User</title>
<ellipse fill="none" stroke="black" cx="775.624" cy="-291" rx="33.9411" ry="18.3848"/>
<text text-anchor="middle" x="775.624" y="-287.4" font-family="Times Roman,serif" font-size="14.00">User</text>
</g>
<!-- Group&#45;&gt;User -->
<g id="edge4" class="edge"><title>Group&#45;&gt;User</title>
<path fill="none" stroke="#3b9309" d="M400.772,-198.902C398.613,-208.605 398.847,-218.84 405.624,-226 430.637,-252.428 699.739,-228.422 732.624,-244 742.519,-248.687 751.191,-256.778 758.107,-264.939"/>
<polygon fill="#3b9309" stroke="#3b9309" points="400.83,-198.71 408.022,-190.432 402.271,-193.922 403.713,-189.135 403.713,-189.135 403.713,-189.135 402.271,-193.922 399.404,-187.837 400.83,-198.71 400.83,-198.71"/>
<polygon fill="#3b9309" stroke="#3b9309" points="758.253,-265.126 760.874,-275.774 761.335,-269.063 764.417,-273 764.417,-273 764.417,-273 761.335,-269.063 767.961,-270.226 758.253,-265.126 758.253,-265.126"/>
<text text-anchor="middle" x="437.624" y="-213.4" font-family="Times Roman,serif" font-size="14.00">members</text>
</g>
<!-- Friendship -->
<g id="node5" class="node"><title>Friendship</title>
<ellipse fill="none" stroke="black" cx="1471.62" cy="-171" rx="61.0181" ry="18.3848"/>
<text text-anchor="middle" x="1471.62" y="-167.4" font-family="Times Roman,serif" font-size="14.00">Friendship</text>
</g>
<!-- Decline -->
<g id="node6" class="node"><title>Decline</title>
<ellipse fill="none" stroke="black" cx="944.624" cy="-95" rx="48.0833" ry="18.3848"/>
<text text-anchor="middle" x="944.624" y="-91.4" font-family="Times Roman,serif" font-size="14.00">Decline</text>
</g>
<!-- Profile -->
<g id="node7" class="node"><title>Profile</title>
<ellipse fill="none" stroke="black" cx="1592.62" cy="-171" rx="41.9273" ry="18.3848"/>
<text text-anchor="middle" x="1592.62" y="-167.4" font-family="Times Roman,serif" font-size="14.00">Profile</text>
</g>
<!-- Language -->
<g id="node9" class="node"><title>Language</title>
<ellipse fill="none" stroke="black" cx="2240.62" cy="-95" rx="58.8978" ry="18.3848"/>
<text text-anchor="middle" x="2240.62" y="-91.4" font-family="Times Roman,serif" font-size="14.00">Language</text>
</g>
<!-- Profile&#45;&gt;Language -->
<g id="edge18" class="edge"><title>Profile&#45;&gt;Language</title>
<path fill="none" stroke="#5366a9" d="M1630.63,-155.507C1634.96,-154.142 1639.35,-152.929 1643.62,-152 1701.21,-139.476 2114.57,-124.091 2172.62,-114 2177.98,-113.069 2183.53,-111.889 2189.03,-110.576"/>
<ellipse fill="none" stroke="#5366a9" cx="1626.73" cy="-156.821" rx="4.00001" ry="4.00001"/>
<polygon fill="#5366a9" stroke="#5366a9" points="2189.15,-110.545 2199.95,-112.454 2194,-109.318 2198.85,-108.091 2198.85,-108.091 2198.85,-108.091 2194,-109.318 2197.74,-103.729 2189.15,-110.545 2189.15,-110.545"/>
</g>
<!-- Competency -->
<g id="node11" class="node"><title>Competency</title>
<ellipse fill="none" stroke="black" cx="1421.62" cy="-95" rx="72.1249" ry="18.3848"/>
<text text-anchor="middle" x="1421.62" y="-91.4" font-family="Times Roman,serif" font-size="14.00">Competency</text>
</g>
<!-- Profile&#45;&gt;Competency -->
<g id="edge16" class="edge"><title>Profile&#45;&gt;Competency</title>
<path fill="none" stroke="#aa30ca" d="M1555.36,-154.439C1529.49,-142.94 1494.85,-127.547 1467.31,-115.307"/>
<ellipse fill="none" stroke="#aa30ca" cx="1559.18" cy="-156.137" rx="4.00002" ry="4.00002"/>
<polygon fill="#aa30ca" stroke="#aa30ca" points="1467.03,-115.182 1459.72,-107.008 1462.46,-113.151 1457.9,-111.121 1457.9,-111.121 1457.9,-111.121 1462.46,-113.151 1456.07,-115.233 1467.03,-115.182 1467.03,-115.182"/>
</g>
<!-- Education -->
<g id="node15" class="node"><title>Education</title>
<ellipse fill="none" stroke="black" cx="1571.62" cy="-95" rx="60.1041" ry="18.3848"/>
<text text-anchor="middle" x="1571.62" y="-91.4" font-family="Times Roman,serif" font-size="14.00">Education</text>
</g>
<!-- Profile&#45;&gt;Education -->
<g id="edge12" class="edge"><title>Profile&#45;&gt;Education</title>
<path fill="none" stroke="#c8dd78" d="M1585.36,-144.694C1583.45,-137.786 1581.38,-130.307 1579.44,-123.299"/>
<ellipse fill="none" stroke="#c8dd78" cx="1586.47" cy="-148.747" rx="4.00001" ry="4.00001"/>
<polygon fill="#c8dd78" stroke="#c8dd78" points="1579.4,-123.13 1581.07,-112.293 1578.07,-118.311 1576.73,-113.491 1576.73,-113.491 1576.73,-113.491 1578.07,-118.311 1572.4,-114.69 1579.4,-123.13 1579.4,-123.13"/>
</g>
<!-- Reference -->
<g id="node16" class="node"><title>Reference</title>
<ellipse fill="none" stroke="black" cx="1709.62" cy="-95" rx="60.1041" ry="18.3848"/>
<text text-anchor="middle" x="1709.62" y="-91.4" font-family="Times Roman,serif" font-size="14.00">Reference</text>
</g>
<!-- Profile&#45;&gt;Reference -->
<g id="edge20" class="edge"><title>Profile&#45;&gt;Reference</title>
<path fill="none" stroke="#5dc590" d="M1623.46,-150.967C1639.24,-140.716 1658.51,-128.2 1674.82,-117.605"/>
<ellipse fill="none" stroke="#5dc590" cx="1619.66" cy="-153.441" rx="4.00002" ry="4.00002"/>
<polygon fill="#5dc590" stroke="#5dc590" points="1675.15,-117.391 1685.99,-115.717 1679.35,-114.667 1683.54,-111.944 1683.54,-111.944 1683.54,-111.944 1679.35,-114.667 1681.09,-108.17 1675.15,-117.391 1675.15,-117.391"/>
</g>
<!-- Preference -->
<g id="node18" class="node"><title>Preference</title>
<ellipse fill="none" stroke="black" cx="1851.62" cy="-95" rx="63.8479" ry="18.3848"/>
<text text-anchor="middle" x="1851.62" y="-91.4" font-family="Times Roman,serif" font-size="14.00">Preference</text>
</g>
<!-- Profile&#45;&gt;Preference -->
<g id="edge10" class="edge"><title>Profile&#45;&gt;Preference</title>
<path fill="none" stroke="#03ef20" d="M1631.86,-155.985C1635.81,-154.59 1639.79,-153.237 1643.62,-152 1671.84,-142.898 1744.75,-123.243 1796.25,-109.576"/>
<ellipse fill="none" stroke="#03ef20" cx="1628.07" cy="-157.347" rx="4.00001" ry="4.00001"/>
<ellipse fill="#03ef20" stroke="#03ef20" cx="1800.14" cy="-108.545" rx="4.00001" ry="4.00001"/>
</g>
<!-- About -->
<g id="node22" class="node"><title>About</title>
<ellipse fill="none" stroke="black" cx="1974.62" cy="-95" rx="41.0122" ry="18.3848"/>
<text text-anchor="middle" x="1974.62" y="-91.4" font-family="Times Roman,serif" font-size="14.00">About</text>
</g>
<!-- Profile&#45;&gt;About -->
<g id="edge8" class="edge"><title>Profile&#45;&gt;About</title>
<path fill="none" stroke="#8494b9" d="M1630.87,-155.718C1635.13,-154.326 1639.44,-153.048 1643.62,-152 1765.87,-121.368 1802.48,-145.03 1924.62,-114 1928.63,-112.983 1932.75,-111.746 1936.83,-110.395"/>
<ellipse fill="none" stroke="#8494b9" cx="1627.07" cy="-157.023" rx="4.00001" ry="4.00001"/>
<ellipse fill="#8494b9" stroke="#8494b9" cx="1940.8" cy="-109.007" rx="4.00001" ry="4.00001"/>
</g>
<!-- Experience -->
<g id="node28" class="node"><title>Experience</title>
<ellipse fill="none" stroke="black" cx="2098.62" cy="-95" rx="65.0538" ry="18.3848"/>
<text text-anchor="middle" x="2098.62" y="-91.4" font-family="Times Roman,serif" font-size="14.00">Experience</text>
</g>
<!-- Profile&#45;&gt;Experience -->
<g id="edge14" class="edge"><title>Profile&#45;&gt;Experience</title>
<path fill="none" stroke="#925789" d="M1630.83,-155.57C1635.1,-154.205 1639.42,-152.974 1643.62,-152 1685.07,-142.383 1982.73,-121.423 2024.62,-114 2030.4,-112.977 2036.38,-111.741 2042.34,-110.396"/>
<ellipse fill="none" stroke="#925789" cx="1627.04" cy="-156.859" rx="4.00001" ry="4.00001"/>
<polygon fill="#925789" stroke="#925789" points="2042.55,-110.346 2053.31,-112.427 2047.41,-109.196 2052.28,-108.047 2052.28,-108.047 2052.28,-108.047 2047.41,-109.196 2051.24,-103.668 2042.55,-110.346 2042.55,-110.346"/>
</g>
<!-- Ability -->
<g id="node8" class="node"><title>Ability</title>
<polygon fill="none" stroke="black" points="1267.62,-309 1207.62,-309 1207.62,-273 1267.62,-273 1267.62,-309"/>
<text text-anchor="middle" x="1237.62" y="-287.4" font-family="Times Roman,serif" font-size="14.00">Ability</text>
</g>
<!-- Mention -->
<g id="node10" class="node"><title>Mention</title>
<ellipse fill="none" stroke="black" cx="650.624" cy="-95" rx="51.1176" ry="18.3848"/>
<text text-anchor="middle" x="650.624" y="-91.4" font-family="Times Roman,serif" font-size="14.00">Mention</text>
</g>
<!-- Activity -->
<g id="node12" class="node"><title>Activity</title>
<ellipse fill="none" stroke="black" cx="68.6239" cy="-95" rx="48.7904" ry="18.3848"/>
<text text-anchor="middle" x="68.6239" y="-91.4" font-family="Times Roman,serif" font-size="14.00">Activity</text>
</g>
<!-- Activity&#45;&gt;Comment -->
<g id="edge22" class="edge"><title>Activity&#45;&gt;Comment</title>
<path fill="none" stroke="#b5f117" d="M96.1509,-72.8412C103.37,-67.2212 111.21,-61.2824 118.624,-56 125.668,-50.9808 133.352,-45.802 140.732,-40.9665"/>
<ellipse fill="none" stroke="#b5f117" cx="92.8728" cy="-75.4148" rx="4.00002" ry="4.00002"/>
<polygon fill="#b5f117" stroke="#b5f117" points="140.808,-40.9174 151.647,-39.2541 145.004,-38.1977 149.199,-35.478 149.199,-35.478 149.199,-35.478 145.004,-38.1977 146.752,-31.7019 140.808,-40.9174 140.808,-40.9174"/>
</g>
<!-- Like -->
<g id="node21" class="node"><title>Like</title>
<ellipse fill="none" stroke="black" cx="290.624" cy="-19" rx="31.1127" ry="18.3848"/>
<text text-anchor="middle" x="290.624" y="-15.4" font-family="Times Roman,serif" font-size="14.00">Like</text>
</g>
<!-- Activity&#45;&gt;Like -->
<g id="edge24" class="edge"><title>Activity&#45;&gt;Like</title>
<path fill="none" stroke="#abdca5" d="M113.54,-80.2906C164.963,-63.4497 242.225,-38.1441 242.624,-38 246.701,-36.5266 250.952,-34.9316 255.164,-33.3136"/>
<ellipse fill="none" stroke="#abdca5" cx="109.64" cy="-81.5677" rx="4.00001" ry="4.00001"/>
<polygon fill="#abdca5" stroke="#abdca5" points="255.51,-33.1789 266.462,-33.7348 260.167,-31.3608 264.825,-29.5428 264.825,-29.5428 264.825,-29.5428 260.167,-31.3608 263.189,-25.3508 255.51,-33.1789 255.51,-33.1789"/>
</g>
<!-- Pending -->
<g id="node13" class="node"><title>Pending</title>
<ellipse fill="none" stroke="black" cx="1166.62" cy="-95" rx="50.2046" ry="18.3848"/>
<text text-anchor="middle" x="1166.62" y="-91.4" font-family="Times Roman,serif" font-size="14.00">Pending</text>
</g>
<!-- Confirm -->
<g id="node14" class="node"><title>Confirm</title>
<ellipse fill="none" stroke="black" cx="818.624" cy="-95" rx="50.2046" ry="18.3848"/>
<text text-anchor="middle" x="818.624" y="-91.4" font-family="Times Roman,serif" font-size="14.00">Confirm</text>
</g>
<!-- Annotation -->
<g id="node17" class="node"><title>Annotation</title>
<ellipse fill="none" stroke="black" cx="1735.62" cy="-291" rx="65.9683" ry="18.3848"/>
<text text-anchor="middle" x="1735.62" y="-287.4" font-family="Times Roman,serif" font-size="14.00">Annotation</text>
</g>
<!-- Photo -->
<g id="node19" class="node"><title>Photo</title>
<ellipse fill="none" stroke="black" cx="257.624" cy="-95" rx="39.8075" ry="18.3848"/>
<text text-anchor="middle" x="257.624" y="-91.4" font-family="Times Roman,serif" font-size="14.00">Photo</text>
</g>
<!-- Photo&#45;&gt;Comment -->
<g id="edge26" class="edge"><title>Photo&#45;&gt;Comment</title>
<path fill="none" stroke="#01cede" d="M233.22,-72.3816C223.382,-63.2637 212.011,-52.7243 201.984,-43.4313"/>
<ellipse fill="none" stroke="#01cede" cx="236.492" cy="-75.4141" rx="4.00002" ry="4.00002"/>
<polygon fill="#01cede" stroke="#01cede" points="201.961,-43.4097 197.685,-33.3116 198.293,-40.0108 194.626,-36.612 194.626,-36.612 194.626,-36.612 198.293,-40.0108 191.567,-39.9125 201.961,-43.4097 201.961,-43.4097"/>
</g>
<!-- Photo&#45;&gt;Like -->
<g id="edge28" class="edge"><title>Photo&#45;&gt;Like</title>
<path fill="none" stroke="#bccdb1" d="M268.831,-69.1906C272.03,-61.8221 275.527,-53.7697 278.764,-46.3145"/>
<ellipse fill="none" stroke="#bccdb1" cx="267.205" cy="-72.9335" rx="4.00002" ry="4.00002"/>
<polygon fill="#bccdb1" stroke="#bccdb1" points="278.84,-46.1384 286.951,-38.7581 280.831,-41.5521 282.823,-36.9658 282.823,-36.9658 282.823,-36.9658 280.831,-41.5521 278.695,-35.1735 278.84,-46.1384 278.84,-46.1384"/>
</g>
<!-- Status -->
<g id="node23" class="node"><title>Status</title>
<ellipse fill="none" stroke="black" cx="649.624" cy="-171" rx="43.8406" ry="18.3848"/>
<text text-anchor="middle" x="649.624" y="-167.4" font-family="Times Roman,serif" font-size="14.00">Status</text>
</g>
<!-- Status&#45;&gt;Comment -->
<g id="edge30" class="edge"><title>Status&#45;&gt;Comment</title>
<path fill="none" stroke="#b1597f" d="M625.965,-148.323C615.148,-137.909 602.194,-125.372 590.624,-114 573.59,-97.2573 574.072,-86.5104 552.624,-76 431.146,-16.4696 383.565,-63.0485 250.624,-38 243.884,-36.73 236.848,-35.2108 229.904,-33.5922"/>
<ellipse fill="none" stroke="#b1597f" cx="628.849" cy="-151.096" rx="4.00002" ry="4.00002"/>
<polygon fill="#b1597f" stroke="#b1597f" points="229.561,-33.5097 220.894,-26.7923 224.7,-32.3384 219.839,-31.1671 219.839,-31.1671 219.839,-31.1671 224.7,-32.3384 218.785,-35.5419 229.561,-33.5097 229.561,-33.5097"/>
</g>
<!-- Status&#45;&gt;Mention -->
<g id="edge34" class="edge"><title>Status&#45;&gt;Mention</title>
<path fill="none" stroke="#355551" d="M649.978,-144.073C650.065,-137.449 650.159,-130.332 650.247,-123.63"/>
<ellipse fill="none" stroke="#355551" cx="649.924" cy="-148.214" rx="4" ry="4"/>
<polygon fill="#355551" stroke="#355551" points="650.248,-123.57 654.879,-113.63 650.314,-118.57 650.38,-113.57 650.38,-113.57 650.38,-113.57 650.314,-118.57 645.88,-113.511 650.248,-123.57 650.248,-123.57"/>
</g>
<!-- Status&#45;&gt;Like -->
<g id="edge32" class="edge"><title>Status&#45;&gt;Like</title>
<path fill="none" stroke="#b3af24" d="M678.907,-149.861C703.134,-129.831 730.587,-99.4113 710.624,-76 686.212,-47.3723 432.759,-28.107 331.795,-21.5156"/>
<ellipse fill="none" stroke="#b3af24" cx="675.648" cy="-152.47" rx="4.00002" ry="4.00002"/>
<polygon fill="#b3af24" stroke="#b3af24" points="331.645,-21.506 321.955,-16.3728 326.656,-21.1848 321.666,-20.8635 321.666,-20.8635 321.666,-20.8635 326.656,-21.1848 321.377,-25.3542 331.645,-21.506 331.645,-21.506"/>
</g>
<!-- Status&#45;&gt;User -->
<g id="edge36" class="edge"><title>Status&#45;&gt;User</title>
<path fill="none" stroke="#8dbfa2" d="M596.197,-176.112C548.76,-182.652 490.793,-196.829 517.624,-226 550.081,-261.288 689.592,-222.858 732.624,-244 742.451,-248.828 751.108,-256.951 758.03,-265.098"/>
<polygon fill="#8dbfa2" stroke="#8dbfa2" points="596.208,-176.111 606.702,-179.293 601.167,-175.47 606.125,-174.83 606.125,-174.83 606.125,-174.83 601.167,-175.47 605.549,-170.367 596.208,-176.111 596.208,-176.111"/>
<polygon fill="#8dbfa2" stroke="#8dbfa2" points="758.169,-265.274 760.818,-275.915 761.261,-269.203 764.354,-273.132 764.354,-273.132 764.354,-273.132 761.261,-269.203 767.89,-270.349 758.169,-265.274 758.169,-265.274"/>
<text text-anchor="middle" x="576.624" y="-213.4" font-family="Times Roman,serif" font-size="14.00">mentioned_users</text>
</g>
<!-- Post -->
<g id="node24" class="node"><title>Post</title>
<ellipse fill="none" stroke="black" cx="167.624" cy="-95" rx="32.0265" ry="18.3848"/>
<text text-anchor="middle" x="167.624" y="-91.4" font-family="Times Roman,serif" font-size="14.00">Post</text>
</g>
<!-- Post&#45;&gt;Comment -->
<g id="edge38" class="edge"><title>Post&#45;&gt;Comment</title>
<path fill="none" stroke="#e1a54f" d="M170.458,-68.0731C171.156,-61.4485 171.905,-54.332 172.61,-47.6302"/>
<ellipse fill="none" stroke="#e1a54f" cx="170.02" cy="-72.2355" rx="4" ry="4"/>
<polygon fill="#e1a54f" stroke="#e1a54f" points="172.622,-47.5155 178.144,-38.0415 173.146,-42.5429 173.669,-37.5704 173.669,-37.5704 173.669,-37.5704 173.146,-42.5429 169.194,-37.0993 172.622,-47.5155 172.622,-47.5155"/>
</g>
<!-- Post&#45;&gt;Like -->
<g id="edge40" class="edge"><title>Post&#45;&gt;Like</title>
<path fill="none" stroke="#6165c2" d="M196.497,-77.1598C215.686,-65.3031 240.84,-49.7609 260.317,-37.7263"/>
<ellipse fill="none" stroke="#6165c2" cx="193.017" cy="-79.3101" rx="4.00002" ry="4.00002"/>
<polygon fill="#6165c2" stroke="#6165c2" points="260.317,-37.7261 271.19,-36.2978 264.571,-35.0979 268.824,-32.4696 268.824,-32.4696 268.824,-32.4696 264.571,-35.0979 266.459,-28.6415 260.317,-37.7261 260.317,-37.7261"/>
</g>
<!-- Reply -->
<g id="node25" class="node"><title>Reply</title>
<ellipse fill="none" stroke="black" cx="2134.62" cy="-171" rx="38.1838" ry="18.3848"/>
<text text-anchor="middle" x="2134.62" y="-167.4" font-family="Times Roman,serif" font-size="14.00">Reply</text>
</g>
<!-- Message -->
<g id="node26" class="node"><title>Message</title>
<ellipse fill="none" stroke="black" cx="2134.62" cy="-291" rx="53.033" ry="18.3848"/>
<text text-anchor="middle" x="2134.62" y="-287.4" font-family="Times Roman,serif" font-size="14.00">Message</text>
</g>
<!-- Message&#45;&gt;Reply -->
<g id="edge42" class="edge"><title>Message&#45;&gt;Reply</title>
<path fill="none" stroke="#08653f" d="M2134.62,-264.053C2134.62,-244.923 2134.62,-219.278 2134.62,-199.755"/>
<ellipse fill="none" stroke="#08653f" cx="2134.62" cy="-268.25" rx="4" ry="4"/>
<polygon fill="#08653f" stroke="#08653f" points="2134.62,-199.618 2139.12,-189.618 2134.62,-194.618 2134.62,-189.618 2134.62,-189.618 2134.62,-189.618 2134.62,-194.618 2130.12,-189.618 2134.62,-199.618 2134.62,-199.618"/>
</g>
<!-- Relationship -->
<g id="node27" class="node"><title>Relationship</title>
<ellipse fill="none" stroke="black" cx="2276.62" cy="-291" rx="70.9184" ry="18.3848"/>
<text text-anchor="middle" x="2276.62" y="-287.4" font-family="Times Roman,serif" font-size="14.00">Relationship</text>
</g>
<!-- Request -->
<g id="node29" class="node"><title>Request</title>
<ellipse fill="none" stroke="black" cx="1703.62" cy="-171" rx="50.9117" ry="18.3848"/>
<text text-anchor="middle" x="1703.62" y="-167.4" font-family="Times Roman,serif" font-size="14.00">Request</text>
</g>
<!-- Page&#45;&gt;Comment -->
<g id="edge44" class="edge"><title>Page&#45;&gt;Comment</title>
<path fill="none" stroke="#6c45ba" d="M474.995,-79.5448C471.532,-78.2358 468.033,-77.0236 464.624,-76 372.105,-48.2214 345.062,-58.3189 250.624,-38 244.007,-36.5763 237.089,-34.9769 230.245,-33.3261"/>
<ellipse fill="none" stroke="#6c45ba" cx="478.755" cy="-81.0463" rx="4.00001" ry="4.00001"/>
<polygon fill="#6c45ba" stroke="#6c45ba" points="230.025,-33.2722 221.388,-26.5154 225.169,-32.0788 220.314,-30.8853 220.314,-30.8853 220.314,-30.8853 225.169,-32.0788 219.24,-35.2553 230.025,-33.2722 230.025,-33.2722"/>
</g>
<!-- Page&#45;&gt;Like -->
<g id="edge46" class="edge"><title>Page&#45;&gt;Like</title>
<path fill="none" stroke="#65fbee" d="M474.279,-79.8139C471.031,-78.4853 467.775,-77.1937 464.624,-76 418.358,-58.4745 364.035,-41.1907 328.552,-30.3323"/>
<ellipse fill="none" stroke="#65fbee" cx="478.099" cy="-81.4103" rx="4.00002" ry="4.00002"/>
<polygon fill="#65fbee" stroke="#65fbee" points="328.188,-30.2215 319.931,-23.0053 323.405,-28.766 318.621,-27.3105 318.621,-27.3105 318.621,-27.3105 323.405,-28.766 317.311,-31.6156 328.188,-30.2215 328.188,-30.2215"/>
</g>
<!-- Album -->
<g id="node31" class="node"><title>Album</title>
<ellipse fill="none" stroke="black" cx="2407.62" cy="-291" rx="41.9273" ry="18.3848"/>
<text text-anchor="middle" x="2407.62" y="-287.4" font-family="Times Roman,serif" font-size="14.00">Album</text>
</g>
<!-- User&#45;&gt;Comment -->
<g id="edge72" class="edge"><title>User&#45;&gt;Comment</title>
<path fill="none" stroke="#872c5f" d="M759.766,-266.733C752.617,-257.922 743.356,-248.927 732.624,-244 674.029,-217.098 214.675,-243.513 152.624,-226 121.587,-217.24 115.441,-209.326 89.6239,-190 40.2757,-153.059 -25.1473,-126.203 10.6239,-76 23.405,-58.0625 74.8615,-42.1192 116.956,-31.688"/>
<ellipse fill="none" stroke="#872c5f" cx="762.389" cy="-270.181" rx="4.00002" ry="4.00002"/>
<polygon fill="#872c5f" stroke="#872c5f" points="117.156,-31.6398 127.934,-33.661 122.016,-30.4635 126.875,-29.2873 126.875,-29.2873 126.875,-29.2873 122.016,-30.4635 125.817,-24.9135 117.156,-31.6398 117.156,-31.6398"/>
</g>
<!-- User&#45;&gt;Group -->
<g id="edge82" class="edge"><title>User&#45;&gt;Group</title>
<path fill="none" stroke="#2b9e26" d="M758.424,-265.301C751.458,-257.014 742.672,-248.75 732.624,-244 698.723,-227.974 421.422,-253.213 395.624,-226 388.306,-218.281 390.011,-207.475 394.5,-197.482"/>
<polygon fill="#2b9e26" stroke="#2b9e26" points="758.631,-265.567 761.208,-276.226 761.697,-269.517 764.763,-273.466 764.763,-273.466 764.763,-273.466 761.697,-269.517 768.318,-270.707 758.631,-265.567 758.631,-265.567"/>
<polygon fill="#2b9e26" stroke="#2b9e26" points="394.51,-197.464 403.196,-190.769 396.869,-193.055 399.228,-188.646 399.228,-188.646 399.228,-188.646 396.869,-193.055 395.26,-186.523 394.51,-197.464 394.51,-197.464"/>
</g>
<!-- User&#45;&gt;Friendship -->
<g id="edge48" class="edge"><title>User&#45;&gt;Friendship</title>
<path fill="none" stroke="#cb637e" d="M817.417,-286.076C893.298,-277.198 1058.82,-258.12 1198.62,-244 1286.54,-235.121 1313.98,-257.269 1396.62,-226 1401.76,-224.055 1422.65,-208.623 1441.08,-194.599"/>
<ellipse fill="none" stroke="#cb637e" cx="813.022" cy="-286.591" rx="4.00001" ry="4.00001"/>
<polygon fill="#cb637e" stroke="#cb637e" points="1441.36,-194.381 1452.04,-191.883 1445.34,-191.345 1449.31,-188.308 1449.31,-188.308 1449.31,-188.308 1445.34,-191.345 1446.58,-184.733 1441.36,-194.381 1441.36,-194.381"/>
</g>
<!-- User&#45;&gt;Friendship -->
<g id="edge52" class="edge"><title>User&#45;&gt;Friendship</title>
<path fill="none" stroke="#e040a7" d="M817.402,-285.931C893.261,-276.821 1058.75,-257.388 1198.62,-244 1248.33,-239.242 1377.91,-248.242 1422.62,-226 1429.67,-222.496 1441.26,-209.654 1451.4,-197.26"/>
<ellipse fill="none" stroke="#e040a7" cx="813.009" cy="-286.459" rx="4.00001" ry="4.00001"/>
<polygon fill="#e040a7" stroke="#e040a7" points="1451.54,-197.086 1461.31,-192.097 1454.67,-193.185 1457.8,-189.283 1457.8,-189.283 1457.8,-189.283 1454.67,-193.185 1454.28,-186.469 1451.54,-197.086 1451.54,-197.086"/>
<text text-anchor="middle" x="1508.12" y="-213.4" font-family="Times Roman,serif" font-size="14.00">inverse_friendships</text>
</g>
<!-- User&#45;&gt;Profile -->
<g id="edge84" class="edge"><title>User&#45;&gt;Profile</title>
<path fill="none" stroke="#2e410a" d="M817.075,-285.512C892.739,-275.691 1058.37,-255.103 1198.62,-244 1240.76,-240.664 1545.87,-252.724 1578.62,-226 1587,-219.167 1590.76,-208.094 1592.34,-197.667"/>
<ellipse fill="none" stroke="#2e410a" cx="812.701" cy="-286.082" rx="4.00001" ry="4.00001"/>
<ellipse fill="#2e410a" stroke="#2e410a" cx="1592.76" cy="-193.517" rx="4" ry="4"/>
</g>
<!-- User&#45;&gt;Activity -->
<g id="edge68" class="edge"><title>User&#45;&gt;Activity</title>
<path fill="none" stroke="#422999" d="M759.741,-266.787C752.588,-257.984 743.332,-248.981 732.624,-244 688.36,-223.41 342.055,-232.137 293.624,-226 217.868,-216.401 187.74,-234.415 125.624,-190 102.558,-173.508 87.1557,-144.506 78.2393,-122.872"/>
<ellipse fill="none" stroke="#422999" cx="762.365" cy="-270.229" rx="4.00002" ry="4.00002"/>
<polygon fill="#422999" stroke="#422999" points="78.2265,-122.839 78.7876,-111.887 76.4107,-118.18 74.5948,-113.521 74.5948,-113.521 74.5948,-113.521 76.4107,-118.18 70.4021,-115.156 78.2265,-122.839 78.2265,-122.839"/>
</g>
<!-- User&#45;&gt;Pending -->
<g id="edge60" class="edge"><title>User&#45;&gt;Pending</title>
<path fill="none" stroke="#bc893f" d="M817.481,-286.34C943.744,-272.237 1312.46,-230.691 1316.62,-226 1357.27,-180.183 1269.84,-135.05 1212.13,-111.591"/>
<ellipse fill="none" stroke="#bc893f" cx="813.145" cy="-286.824" rx="4.00001" ry="4.00001"/>
<polygon fill="#bc893f" stroke="#bc893f" points="1212.08,-111.574 1204.45,-103.697 1207.44,-109.726 1202.79,-107.879 1202.79,-107.879 1202.79,-107.879 1207.44,-109.726 1201.13,-112.06 1212.08,-111.574 1212.08,-111.574"/>
</g>
<!-- User&#45;&gt;Confirm -->
<g id="edge56" class="edge"><title>User&#45;&gt;Confirm</title>
<path fill="none" stroke="#89a36e" d="M756.444,-267.263C749.419,-259.354 741.103,-250.828 732.624,-244 720.215,-234.008 709.573,-239.807 701.624,-226 697.632,-219.067 698.498,-215.364 701.624,-208 718.272,-168.776 755.942,-136.533 784.069,-116.669"/>
<ellipse fill="none" stroke="#89a36e" cx="759.401" cy="-270.684" rx="4.00002" ry="4.00002"/>
<polygon fill="#89a36e" stroke="#89a36e" points="784.214,-116.569 795.005,-114.616 788.336,-113.738 792.458,-110.907 792.458,-110.907 792.458,-110.907 788.336,-113.738 789.91,-107.198 784.214,-116.569 784.214,-116.569"/>
</g>
<!-- User&#45;&gt;Photo -->
<g id="edge78" class="edge"><title>User&#45;&gt;Photo</title>
<path fill="none" stroke="#953eed" d="M759.721,-266.829C752.565,-258.032 743.312,-249.022 732.624,-244 658.321,-209.085 436.834,-263.153 363.624,-226 319.648,-203.683 287.627,-153.96 270.884,-122.597"/>
<ellipse fill="none" stroke="#953eed" cx="762.345" cy="-270.266" rx="4.00002" ry="4.00002"/>
<polygon fill="#953eed" stroke="#953eed" points="270.775,-122.386 270.179,-111.437 268.478,-117.945 266.182,-113.504 266.182,-113.504 266.182,-113.504 268.478,-117.945 262.184,-115.571 270.775,-122.386 270.775,-122.386"/>
</g>
<!-- User&#45;&gt;Membership -->
<g id="edge80" class="edge"><title>User&#45;&gt;Membership</title>
<path fill="none" stroke="#8ca952" d="M759.712,-266.848C752.555,-258.053 743.304,-249.04 732.624,-244 663.197,-211.233 454.701,-263.342 387.624,-226 357.292,-209.115 356.008,-186.079 362.624,-152 364.536,-142.153 368.144,-131.852 371.946,-122.759"/>
<ellipse fill="none" stroke="#8ca952" cx="762.337" cy="-270.283" rx="4.00002" ry="4.00002"/>
<polygon fill="#8ca952" stroke="#8ca952" points="372.023,-122.585 380.19,-115.267 374.05,-118.014 376.076,-113.444 376.076,-113.444 376.076,-113.444 374.05,-118.014 371.963,-111.62 372.023,-122.585 372.023,-122.585"/>
</g>
<!-- User&#45;&gt;Like -->
<g id="edge74" class="edge"><title>User&#45;&gt;Like</title>
<path fill="none" stroke="#5957c2" d="M817.401,-286.335C946.961,-271.844 1333.46,-228.433 1335.62,-226 1347.93,-212.181 1342.79,-183.662 1322.62,-152 1293.2,-105.807 1276.83,-95.4339 1225.62,-76 1141.34,-44.0112 501.62,-24.6745 331.868,-20.071"/>
<ellipse fill="none" stroke="#5957c2" cx="813.22" cy="-286.802" rx="4.00001" ry="4.00001"/>
<polygon fill="#5957c2" stroke="#5957c2" points="331.829,-20.0701 321.954,-15.3029 326.831,-19.9357 321.833,-19.8013 321.833,-19.8013 321.833,-19.8013 326.831,-19.9357 321.712,-24.2996 331.829,-20.0701 331.829,-20.0701"/>
</g>
<!-- User&#45;&gt;Status -->
<g id="edge64" class="edge"><title>User&#45;&gt;Status</title>
<path fill="none" stroke="#807638" d="M758.482,-267.149C751.348,-258.739 742.436,-249.915 732.624,-244 705.481,-227.638 685.968,-248.477 663.624,-226 656.686,-219.021 653.031,-209.116 651.153,-199.631"/>
<ellipse fill="none" stroke="#807638" cx="761.06" cy="-270.336" rx="4.00002" ry="4.00002"/>
<polygon fill="#807638" stroke="#807638" points="651.143,-199.562 654.197,-189.03 650.442,-194.611 649.741,-189.661 649.741,-189.661 649.741,-189.661 650.442,-194.611 645.285,-190.292 651.143,-199.562 651.143,-199.562"/>
</g>
<!-- User&#45;&gt;Post -->
<g id="edge70" class="edge"><title>User&#45;&gt;Post</title>
<path fill="none" stroke="#84e842" d="M759.73,-266.81C752.576,-258.01 743.321,-249.003 732.624,-244 652.428,-206.49 418.108,-255.476 334.624,-226 273.763,-204.511 218.006,-151.102 188.86,-119.512"/>
<ellipse fill="none" stroke="#84e842" cx="762.354" cy="-270.249" rx="4.00002" ry="4.00002"/>
<polygon fill="#84e842" stroke="#84e842" points="188.752,-119.393 185.371,-108.962 185.394,-115.689 182.036,-111.984 182.036,-111.984 182.036,-111.984 185.394,-115.689 178.702,-115.006 188.752,-119.393 188.752,-119.393"/>
</g>
<!-- User&#45;&gt;Request -->
<g id="edge66" class="edge"><title>User&#45;&gt;Request</title>
<path fill="none" stroke="#804767" d="M817.073,-285.481C892.732,-275.61 1058.36,-254.945 1198.62,-244 1287.11,-237.096 1511.89,-248.977 1597.62,-226 1623.79,-218.987 1650.86,-204.805 1671.09,-192.599"/>
<ellipse fill="none" stroke="#804767" cx="812.699" cy="-286.053" rx="4.00001" ry="4.00001"/>
<polygon fill="#804767" stroke="#804767" points="1671.1,-192.597 1681.97,-191.167 1675.35,-189.968 1679.6,-187.339 1679.6,-187.339 1679.6,-187.339 1675.35,-189.968 1677.24,-183.511 1671.1,-192.597 1671.1,-192.597"/>
</g>
<!-- User&#45;&gt;Page -->
<g id="edge76" class="edge"><title>User&#45;&gt;Page</title>
<path fill="none" stroke="#523974" d="M759.318,-266.605C752.197,-257.956 743.074,-249.11 732.624,-244 687.563,-221.965 541.649,-262.855 507.624,-226 482.369,-198.644 489.821,-152.708 498.478,-123.14"/>
<ellipse fill="none" stroke="#523974" cx="761.912" cy="-269.953" rx="4.00002" ry="4.00002"/>
<polygon fill="#523974" stroke="#523974" points="498.535,-122.959 505.831,-114.773 500.037,-118.19 501.539,-113.421 501.539,-113.421 501.539,-113.421 500.037,-118.19 497.247,-112.07 498.535,-122.959 498.535,-122.959"/>
</g>
<!-- User&#45;&gt;User -->
<g id="edge50" class="edge"><title>User&#45;&gt;User</title>
<path fill="none" stroke="#c4b8e7" d="M817.444,-297.261C823.526,-296.267 827.624,-294.18 827.624,-291 827.624,-287.82 823.526,-285.733 817.444,-284.739"/>
<polygon fill="#c4b8e7" stroke="#c4b8e7" points="817.336,-297.268 807.059,-293.444 812.348,-297.601 807.359,-297.934 807.359,-297.934 807.359,-297.934 812.348,-297.601 807.658,-302.424 817.336,-297.268 817.336,-297.268"/>
<polygon fill="#c4b8e7" stroke="#c4b8e7" points="817.336,-284.732 807.658,-279.576 812.348,-284.399 807.359,-284.066 807.359,-284.066 807.359,-284.066 812.348,-284.399 807.059,-288.556 817.336,-284.732 817.336,-284.732"/>
<text text-anchor="middle" x="851.124" y="-287.4" font-family="Times Roman,serif" font-size="14.00">friends</text>
</g>
<!-- User&#45;&gt;User -->
<g id="edge54" class="edge"><title>User&#45;&gt;User</title>
<path fill="none" stroke="#517b5e" d="M813.413,-303.569C842.317,-307.278 874.624,-303.088 874.624,-291 874.624,-278.912 842.317,-274.722 813.413,-278.431"/>
<polygon fill="#517b5e" stroke="#517b5e" points="813.259,-303.543 804.118,-297.486 808.325,-302.735 803.39,-301.927 803.39,-301.927 803.39,-301.927 808.325,-302.735 802.663,-306.368 813.259,-303.543 813.259,-303.543"/>
<polygon fill="#517b5e" stroke="#517b5e" points="813.259,-278.457 802.663,-275.632 808.325,-279.265 803.39,-280.073 803.39,-280.073 803.39,-280.073 808.325,-279.265 804.118,-284.514 813.259,-278.457 813.259,-278.457"/>
<text text-anchor="middle" x="927.124" y="-287.4" font-family="Times Roman,serif" font-size="14.00">inverse_friends</text>
</g>
<!-- Event -->
<g id="node33" class="node"><title>Event</title>
<ellipse fill="none" stroke="black" cx="944.624" cy="-171" rx="39.8075" ry="18.3848"/>
<text text-anchor="middle" x="944.624" y="-167.4" font-family="Times Roman,serif" font-size="14.00">Event</text>
</g>
<!-- User&#45;&gt;Event -->
<g id="edge58" class="edge"><title>User&#45;&gt;Event</title>
<path fill="none" stroke="#d1cc33" d="M819.737,-287.765C893.553,-281.333 1037.04,-264.136 1067.62,-226 1090.91,-196.964 1037.74,-182.775 994.153,-176.194"/>
<polygon fill="#d1cc33" stroke="#d1cc33" points="819.338,-287.798 808.996,-284.152 814.355,-288.217 809.373,-288.637 809.373,-288.637 809.373,-288.637 814.355,-288.217 809.75,-293.121 819.338,-287.798 819.338,-287.798"/>
<polygon fill="#d1cc33" stroke="#d1cc33" points="994.086,-176.185 984.81,-170.335 989.134,-175.488 984.183,-174.791 984.183,-174.791 984.183,-174.791 989.134,-175.488 983.556,-179.248 994.086,-176.185 994.086,-176.185"/>
<text text-anchor="middle" x="1134.62" y="-213.4" font-family="Times Roman,serif" font-size="14.00">confirmed_events</text>
</g>
<!-- User&#45;&gt;Event -->
<g id="edge62" class="edge"><title>User&#45;&gt;Event</title>
<path fill="none" stroke="#2262f9" d="M819.412,-287.487C922.752,-278.753 1175,-254.682 1199.62,-226 1204.83,-219.93 1204.86,-214.049 1199.62,-208 1186.39,-192.706 1064.58,-180.555 994.218,-174.739"/>
<polygon fill="#2262f9" stroke="#2262f9" points="819.272,-287.498 808.932,-283.847 814.29,-287.915 809.307,-288.332 809.307,-288.332 809.307,-288.332 814.29,-287.915 809.682,-292.816 819.272,-287.498 819.272,-287.498"/>
<polygon fill="#2262f9" stroke="#2262f9" points="994.195,-174.737 984.593,-169.442 989.212,-174.332 984.228,-173.927 984.228,-173.927 984.228,-173.927 989.212,-174.332 983.864,-178.413 994.195,-174.737 994.195,-174.737"/>
<text text-anchor="middle" x="1258.12" y="-213.4" font-family="Times Roman,serif" font-size="14.00">pending_events</text>
</g>
<!-- ActsAsMessageable::Message -->
<g id="node78" class="node"><title>ActsAsMessageable::Message</title>
<ellipse fill="none" stroke="black" cx="1925.62" cy="-171" rx="152.942" ry="18.3848"/>
<text text-anchor="middle" x="1925.62" y="-167.4" font-family="Times Roman,serif" font-size="14.00">ActsAsMessageable::Message</text>
</g>
<!-- User&#45;&gt;ActsAsMessageable::Message -->
<g id="edge86" class="edge"><title>User&#45;&gt;ActsAsMessageable::Message</title>
<path fill="none" stroke="#9ebe41" d="M817.069,-285.429C892.722,-275.476 1058.34,-254.683 1198.62,-244 1391.56,-229.307 1441.9,-252.139 1633.62,-226 1668.45,-221.252 1676.18,-214.983 1710.62,-208 1747.1,-200.605 1787.25,-193.436 1822.88,-187.408"/>
<ellipse fill="none" stroke="#9ebe41" cx="812.695" cy="-286.007" rx="4.00001" ry="4.00001"/>
<polygon fill="#9ebe41" stroke="#9ebe41" points="1822.94,-187.398 1833.55,-190.177 1827.87,-186.569 1832.8,-185.739 1832.8,-185.739 1832.8,-185.739 1827.87,-186.569 1832.05,-181.302 1822.94,-187.398 1822.94,-187.398"/>
<text text-anchor="middle" x="1807.12" y="-213.4" font-family="Times Roman,serif" font-size="14.00">received_messages_relation</text>
</g>
<!-- User&#45;&gt;ActsAsMessageable::Message -->
<g id="edge88" class="edge"><title>User&#45;&gt;ActsAsMessageable::Message</title>
<path fill="none" stroke="#8d24b6" d="M817.053,-285.211C892.681,-274.907 1058.26,-253.573 1198.62,-244 1237.71,-241.334 1871.46,-248.377 1903.62,-226 1912.49,-219.832 1917.78,-209.472 1920.94,-199.395"/>
<ellipse fill="none" stroke="#8d24b6" cx="812.679" cy="-285.809" rx="4.00001" ry="4.00001"/>
<polygon fill="#8d24b6" stroke="#8d24b6" points="1920.97,-199.269 1927.81,-190.691 1922.21,-194.424 1923.45,-189.579 1923.45,-189.579 1923.45,-189.579 1922.21,-194.424 1919.09,-188.467 1920.97,-199.269 1920.97,-199.269"/>
<text text-anchor="middle" x="1999.12" y="-213.4" font-family="Times Roman,serif" font-size="14.00">sent_messages_relation</text>
</g>
<!-- Event&#45;&gt;Decline -->
<g id="edge100" class="edge"><title>Event&#45;&gt;Decline</title>
<path fill="none" stroke="#5a77a3" d="M944.624,-144.073C944.624,-137.449 944.624,-130.332 944.624,-123.63"/>
<ellipse fill="none" stroke="#5a77a3" cx="944.624" cy="-148.213" rx="4" ry="4"/>
<polygon fill="#5a77a3" stroke="#5a77a3" points="944.624,-123.57 949.124,-113.57 944.624,-118.57 944.624,-113.57 944.624,-113.57 944.624,-113.57 944.624,-118.57 940.124,-113.57 944.624,-123.57 944.624,-123.57"/>
</g>
<!-- Event&#45;&gt;Pending -->
<g id="edge96" class="edge"><title>Event&#45;&gt;Pending</title>
<path fill="none" stroke="#8cb4d5" d="M984.594,-157.316C1022.74,-144.257 1080.19,-124.59 1120.31,-110.854"/>
<ellipse fill="none" stroke="#8cb4d5" cx="980.689" cy="-158.653" rx="4.00001" ry="4.00001"/>
<polygon fill="#8cb4d5" stroke="#8cb4d5" points="1120.4,-110.823 1131.32,-111.841 1125.14,-109.203 1129.87,-107.584 1129.87,-107.584 1129.87,-107.584 1125.14,-109.203 1128.41,-103.326 1120.4,-110.823 1120.4,-110.823"/>
</g>
<!-- Event&#45;&gt;Confirm -->
<g id="edge92" class="edge"><title>Event&#45;&gt;Confirm</title>
<path fill="none" stroke="#ba2bbe" d="M913.158,-152.021C895.079,-141.116 872.331,-127.395 853.681,-116.145"/>
<ellipse fill="none" stroke="#ba2bbe" cx="916.606" cy="-154.1" rx="4.00002" ry="4.00002"/>
<polygon fill="#ba2bbe" stroke="#ba2bbe" points="853.456,-116.01 847.217,-106.991 849.174,-113.427 844.893,-110.845 844.893,-110.845 844.893,-110.845 849.174,-113.427 842.568,-114.698 853.456,-116.01 853.456,-116.01"/>
</g>
<!-- Event&#45;&gt;Page -->
<g id="edge90" class="edge"><title>Event&#45;&gt;Page</title>
<path fill="none" stroke="#f0265a" d="M898.278,-164.565C830.481,-154.918 700.393,-135.529 590.624,-114 577.498,-111.426 563.276,-108.263 550.419,-105.263"/>
<ellipse fill="none" stroke="#f0265a" cx="902.271" cy="-165.131" rx="4.00001" ry="4.00001"/>
<polygon fill="#f0265a" stroke="#f0265a" points="550.18,-105.206 541.483,-98.5256 545.314,-104.055 540.448,-102.905 540.448,-102.905 540.448,-102.905 545.314,-104.055 539.412,-107.284 550.18,-105.206 550.18,-105.206"/>
</g>
<!-- Event&#45;&gt;User -->
<g id="edge94" class="edge"><title>Event&#45;&gt;User</title>
<path fill="none" stroke="#d527cb" d="M895.04,-175.358C829.422,-181.635 720.587,-194.015 708.624,-208 703.424,-214.079 705.046,-218.845 708.624,-226 714.587,-237.926 722.748,-235.042 732.624,-244 740.084,-250.766 747.677,-258.665 754.365,-266.036"/>
<polygon fill="#d527cb" stroke="#d527cb" points="895.223,-175.341 905.6,-178.884 900.201,-174.872 905.179,-174.404 905.179,-174.404 905.179,-174.404 900.201,-174.872 904.757,-169.924 895.223,-175.341 895.223,-175.341"/>
<polygon fill="#d527cb" stroke="#d527cb" points="754.576,-266.272 757.855,-276.736 757.897,-270.01 761.218,-273.747 761.218,-273.747 761.218,-273.747 757.897,-270.01 764.582,-270.758 754.576,-266.272 754.576,-266.272"/>
<text text-anchor="middle" x="764.624" y="-213.4" font-family="Times Roman,serif" font-size="14.00">confirmed_users</text>
</g>
<!-- Event&#45;&gt;User -->
<g id="edge98" class="edge"><title>Event&#45;&gt;User</title>
<path fill="none" stroke="#86540e" d="M898.44,-182.224C880.288,-188.039 859.936,-196.409 843.624,-208 822.353,-223.114 804,-246.539 791.741,-264.654"/>
<polygon fill="#86540e" stroke="#86540e" points="898.688,-182.149 909.563,-183.559 903.473,-180.701 908.259,-179.252 908.259,-179.252 908.259,-179.252 903.473,-180.701 906.955,-174.945 898.688,-182.149 898.688,-182.149"/>
<polygon fill="#86540e" stroke="#86540e" points="791.712,-264.699 782.464,-270.592 788.969,-268.88 786.226,-273.061 786.226,-273.061 786.226,-273.061 788.969,-268.88 789.989,-275.529 791.712,-264.699 791.712,-264.699"/>
<text text-anchor="middle" x="893.624" y="-213.4" font-family="Times Roman,serif" font-size="14.00">pending_users</text>
</g>
<!-- Event&#45;&gt;User -->
<g id="edge102" class="edge"><title>Event&#45;&gt;User</title>
<path fill="none" stroke="#8ce300" d="M950.083,-199.405C950.369,-208.599 948.95,-218.378 943.624,-226 928.636,-247.449 861.455,-268.631 816.722,-280.73"/>
<polygon fill="#8ce300" stroke="#8ce300" points="950.081,-199.378 953.634,-189.003 949.617,-194.399 949.153,-189.421 949.153,-189.421 949.153,-189.421 949.617,-194.399 944.673,-189.838 950.081,-199.378 950.081,-199.378"/>
<polygon fill="#8ce300" stroke="#8ce300" points="816.654,-280.748 805.834,-278.966 811.822,-282.032 806.99,-283.315 806.99,-283.315 806.99,-283.315 811.822,-282.032 808.145,-287.665 816.654,-280.748 816.654,-280.748"/>
<text text-anchor="middle" x="1001.12" y="-213.4" font-family="Times Roman,serif" font-size="14.00">declined_users</text>
</g>
<!-- Wall -->
<g id="node34" class="node"><title>Wall</title>
<ellipse fill="none" stroke="black" cx="167.624" cy="-171" rx="33.234" ry="18.3848"/>
<text text-anchor="middle" x="167.624" y="-167.4" font-family="Times Roman,serif" font-size="14.00">Wall</text>
</g>
<!-- Wall&#45;&gt;Post -->
<g id="edge104" class="edge"><title>Wall&#45;&gt;Post</title>
<path fill="none" stroke="#f10f9b" d="M167.624,-144.073C167.624,-137.449 167.624,-130.332 167.624,-123.63"/>
<ellipse fill="none" stroke="#f10f9b" cx="167.624" cy="-148.213" rx="4" ry="4"/>
<polygon fill="#f10f9b" stroke="#f10f9b" points="167.624,-123.57 172.124,-113.57 167.624,-118.57 167.624,-113.57 167.624,-113.57 167.624,-113.57 167.624,-118.57 163.124,-113.57 167.624,-123.57 167.624,-123.57"/>
</g>
</g>
</svg>
